<?xml version="1.0" encoding="UTF-8" standalone="no"?>
<!-- Created with Inkscape (http://www.inkscape.org/) -->

<svg
   width="210mm"
   height="297mm"
   viewBox="0 0 210 297"
   version="1.1"
   id="svg5"
   sodipodi:docname="desenho2.svg"
   inkscape:version="1.1.2 (b8e25be833, 2022-02-05)"
   xmlns:inkscape="http://www.inkscape.org/namespaces/inkscape"
   xmlns:sodipodi="http://sodipodi.sourceforge.net/DTD/sodipodi-0.dtd"
   xmlns="http://www.w3.org/2000/svg"
   xmlns:svg="http://www.w3.org/2000/svg">
  <sodipodi:namedview
     id="namedview7"
     pagecolor="#ffffff"
     bordercolor="#666666"
     borderopacity="1.0"
     inkscape:pageshadow="2"
     inkscape:pageopacity="0.0"
     inkscape:pagecheckerboard="0"
     inkscape:document-units="mm"
     showgrid="false"
     inkscape:zoom="0.71090067"
     inkscape:cx="350.2599"
     inkscape:cy="580.24984"
     inkscape:window-width="1677"
     inkscape:window-height="1095"
     inkscape:window-x="32"
     inkscape:window-y="0"
     inkscape:window-maximized="0"
     inkscape:current-layer="g15" />
  <defs
     id="defs2">
    <clipPath
       clipPathUnits="userSpaceOnUse"
       id="clipPath23">
      <path
         d="M 0,500 H 500 V 0 H 0 Z"
         id="path21" />
    </clipPath>
    <clipPath
       clipPathUnits="userSpaceOnUse"
       id="clipPath35">
      <path
         d="M 0,500 H 500 V 0 H 0 Z"
         id="path33" />
    </clipPath>
    <clipPath
       clipPathUnits="userSpaceOnUse"
       id="clipPath55">
      <path
         d="M 0,500 H 500 V 0 H 0 Z"
         id="path53" />
    </clipPath>
    <clipPath
       clipPathUnits="userSpaceOnUse"
       id="clipPath1371">
      <path
         d="M 0,500 H 500 V 0 H 0 Z"
         id="path1369" />
    </clipPath>
    <clipPath
       clipPathUnits="userSpaceOnUse"
       id="clipPath1379">
      <path
         d="M 36.1453,195.223 H 128.614 V 141.836 H 36.1453 Z"
         id="path1377" />
    </clipPath>
    <clipPath
       clipPathUnits="userSpaceOnUse"
       id="clipPath1395">
      <path
         d="M 82.3767,170.198 H 128.616 V 141.839 H 82.3767 Z"
         id="path1393" />
    </clipPath>
    <clipPath
       clipPathUnits="userSpaceOnUse"
       id="clipPath1415">
      <path
         d="M 36.1442,168.53 H 82.3767 V 129.533 H 36.1442 Z"
         id="path1413" />
    </clipPath>
    <clipPath
       clipPathUnits="userSpaceOnUse"
       id="clipPath1487">
      <path
         d="m 45.3306,157.518 h 0.9626 v -2.507 h -0.9626 z"
         id="path1485" />
    </clipPath>
    <clipPath
       clipPathUnits="userSpaceOnUse"
       id="clipPath1503">
      <path
         d="M 46.8873,156.62 H 47.85 v -2.507 h -0.9627 z"
         id="path1501" />
    </clipPath>
    <clipPath
       clipPathUnits="userSpaceOnUse"
       id="clipPath1519">
      <path
         d="m 59.3414,149.441 h 0.9626 v -2.507 h -0.9626 z"
         id="path1517" />
    </clipPath>
    <clipPath
       clipPathUnits="userSpaceOnUse"
       id="clipPath1547">
      <path
         d="M 82.3767,168.53 H 128.616 V 129.533 H 82.3767 Z"
         id="path1545" />
    </clipPath>
    <clipPath
       clipPathUnits="userSpaceOnUse"
       id="clipPath1567">
      <path
         d="m 69.1423,144.186 h 2.992 v -3.744 h -2.992 z"
         id="path1565" />
    </clipPath>
    <clipPath
       clipPathUnits="userSpaceOnUse"
       id="clipPath1587">
      <path
         d="m 68.7778,143.797 h 2.6775 v -3.458 h -2.6775 z"
         id="path1585" />
    </clipPath>
    <clipPath
       clipPathUnits="userSpaceOnUse"
       id="clipPath1607">
      <path
         d="m 74.9537,140.833 h 2.992 v -3.744 h -2.992 z"
         id="path1605" />
    </clipPath>
    <clipPath
       clipPathUnits="userSpaceOnUse"
       id="clipPath1627">
      <path
         d="m 74.5892,140.443 h 2.6774 v -3.457 h -2.6774 z"
         id="path1625" />
    </clipPath>
    <clipPath
       clipPathUnits="userSpaceOnUse"
       id="clipPath1647">
      <path
         d="M 36.1453,215.243 H 128.614 V 161.856 H 36.1453 Z"
         id="path1645" />
    </clipPath>
    <clipPath
       clipPathUnits="userSpaceOnUse"
       id="clipPath1663">
      <path
         d="M 82.3799,190.218 H 128.614 V 161.856 H 82.3799 Z"
         id="path1661" />
    </clipPath>
    <clipPath
       clipPathUnits="userSpaceOnUse"
       id="clipPath1683">
      <path
         d="M 36.1453,188.549 H 82.38 v -40.04 H 36.1453 Z"
         id="path1681" />
    </clipPath>
    <clipPath
       clipPathUnits="userSpaceOnUse"
       id="clipPath1755">
      <path
         d="m 42.2171,179.329 h 0.9626 v -2.508 h -0.9626 z"
         id="path1753" />
    </clipPath>
    <clipPath
       clipPathUnits="userSpaceOnUse"
       id="clipPath1771">
      <path
         d="m 45.3306,177.534 h 0.9626 v -2.508 h -0.9626 z"
         id="path1769" />
    </clipPath>
    <clipPath
       clipPathUnits="userSpaceOnUse"
       id="clipPath1787">
      <path
         d="M 46.8873,176.636 H 47.85 v -2.507 h -0.9627 z"
         id="path1785" />
    </clipPath>
    <clipPath
       clipPathUnits="userSpaceOnUse"
       id="clipPath1803">
      <path
         d="m 53.1143,173.047 h 0.9627 v -2.508 h -0.9627 z"
         id="path1801" />
    </clipPath>
    <clipPath
       clipPathUnits="userSpaceOnUse"
       id="clipPath1819">
      <path
         d="m 56.2278,171.252 h 0.9627 v -2.507 h -0.9627 z"
         id="path1817" />
    </clipPath>
    <clipPath
       clipPathUnits="userSpaceOnUse"
       id="clipPath1835">
      <path
         d="M 59.3414,169.457 H 60.304 V 166.95 H 59.3414 Z"
         id="path1833" />
    </clipPath>
    <clipPath
       clipPathUnits="userSpaceOnUse"
       id="clipPath1863">
      <path
         d="m 82.3799,188.549 h 46.2341 v -40.04 H 82.3799 Z"
         id="path1861" />
    </clipPath>
    <clipPath
       clipPathUnits="userSpaceOnUse"
       id="clipPath1895">
      <path
         d="m 69.1423,164.206 h 2.992 v -3.744 h -2.992 z"
         id="path1893" />
    </clipPath>
    <clipPath
       clipPathUnits="userSpaceOnUse"
       id="clipPath1915">
      <path
         d="m 68.7778,163.816 h 2.6775 v -3.457 h -2.6775 z"
         id="path1913" />
    </clipPath>
    <clipPath
       clipPathUnits="userSpaceOnUse"
       id="clipPath1935">
      <path
         d="m 74.9537,160.852 h 2.992 v -3.744 h -2.992 z"
         id="path1933" />
    </clipPath>
    <clipPath
       clipPathUnits="userSpaceOnUse"
       id="clipPath1955">
      <path
         d="m 74.5892,160.462 h 2.6774 v -3.457 h -2.6774 z"
         id="path1953" />
    </clipPath>
    <clipPath
       clipPathUnits="userSpaceOnUse"
       id="clipPath1975">
      <path
         d="M 36.1453,235.263 H 128.614 V 181.876 H 36.1453 Z"
         id="path1973" />
    </clipPath>
    <clipPath
       clipPathUnits="userSpaceOnUse"
       id="clipPath1991">
      <path
         d="M 82.3799,210.238 H 128.614 V 181.876 H 82.3799 Z"
         id="path1989" />
    </clipPath>
    <clipPath
       clipPathUnits="userSpaceOnUse"
       id="clipPath2011">
      <path
         d="M 36.1453,208.569 H 82.38 v -40.04 H 36.1453 Z"
         id="path2009" />
    </clipPath>
    <clipPath
       clipPathUnits="userSpaceOnUse"
       id="clipPath2091">
      <path
         d="M 46.8873,196.676 H 47.85 v -2.508 h -0.9627 z"
         id="path2089" />
    </clipPath>
    <clipPath
       clipPathUnits="userSpaceOnUse"
       id="clipPath2107">
      <path
         d="m 48.4441,195.778 h 0.9626 v -2.507 h -0.9626 z"
         id="path2105" />
    </clipPath>
    <clipPath
       clipPathUnits="userSpaceOnUse"
       id="clipPath2123">
      <path
         d="m 54.6711,192.188 h 0.9627 v -2.507 h -0.9627 z"
         id="path2121" />
    </clipPath>
    <clipPath
       clipPathUnits="userSpaceOnUse"
       id="clipPath2139">
      <path
         d="m 59.3414,189.496 h 0.9626 v -2.507 h -0.9626 z"
         id="path2137" />
    </clipPath>
    <clipPath
       clipPathUnits="userSpaceOnUse"
       id="clipPath2155">
      <path
         d="m 62.4549,187.701 h 0.9626 v -2.507 h -0.9626 z"
         id="path2153" />
    </clipPath>
    <clipPath
       clipPathUnits="userSpaceOnUse"
       id="clipPath2175">
      <path
         d="m 82.3799,208.569 h 46.2341 v -40.04 H 82.3799 Z"
         id="path2173" />
    </clipPath>
    <clipPath
       clipPathUnits="userSpaceOnUse"
       id="clipPath2203">
      <path
         d="m 69.1423,184.226 h 2.992 v -3.744 h -2.992 z"
         id="path2201" />
    </clipPath>
    <clipPath
       clipPathUnits="userSpaceOnUse"
       id="clipPath2223">
      <path
         d="m 68.7778,183.836 h 2.6775 v -3.457 h -2.6775 z"
         id="path2221" />
    </clipPath>
    <clipPath
       clipPathUnits="userSpaceOnUse"
       id="clipPath2243">
      <path
         d="m 74.9537,180.872 h 2.992 v -3.744 h -2.992 z"
         id="path2241" />
    </clipPath>
    <clipPath
       clipPathUnits="userSpaceOnUse"
       id="clipPath2263">
      <path
         d="m 74.5892,180.482 h 2.6774 v -3.457 h -2.6774 z"
         id="path2261" />
    </clipPath>
    <clipPath
       clipPathUnits="userSpaceOnUse"
       id="clipPath2283">
      <path
         d="M 36.1453,255.283 H 128.614 V 201.896 H 36.1453 Z"
         id="path2281" />
    </clipPath>
    <clipPath
       clipPathUnits="userSpaceOnUse"
       id="clipPath2299">
      <path
         d="M 36.1453,255.283 H 128.614 V 201.896 H 36.1453 Z"
         id="path2297" />
    </clipPath>
    <clipPath
       clipPathUnits="userSpaceOnUse"
       id="clipPath2315">
      <path
         d="M 82.3799,230.252 H 128.614 V 201.896 H 82.3799 Z"
         id="path2313" />
    </clipPath>
    <clipPath
       clipPathUnits="userSpaceOnUse"
       id="clipPath2335">
      <path
         d="M 36.1453,228.589 H 82.38 v -40.04 H 36.1453 Z"
         id="path2333" />
    </clipPath>
    <clipPath
       clipPathUnits="userSpaceOnUse"
       id="clipPath2407">
      <path
         d="m 42.2171,219.372 h 0.9626 v -2.507 h -0.9626 z"
         id="path2405" />
    </clipPath>
    <clipPath
       clipPathUnits="userSpaceOnUse"
       id="clipPath2423">
      <path
         d="m 48.4441,215.783 h 0.9626 v -2.508 h -0.9626 z"
         id="path2421" />
    </clipPath>
    <clipPath
       clipPathUnits="userSpaceOnUse"
       id="clipPath2439">
      <path
         d="m 50.0009,214.885 h 0.9626 v -2.507 h -0.9626 z"
         id="path2437" />
    </clipPath>
    <clipPath
       clipPathUnits="userSpaceOnUse"
       id="clipPath2455">
      <path
         d="m 53.1143,213.09 h 0.9627 v -2.507 h -0.9627 z"
         id="path2453" />
    </clipPath>
    <clipPath
       clipPathUnits="userSpaceOnUse"
       id="clipPath2471">
      <path
         d="m 59.3414,209.501 h 0.9626 v -2.508 h -0.9626 z"
         id="path2469" />
    </clipPath>
    <clipPath
       clipPathUnits="userSpaceOnUse"
       id="clipPath2499">
      <path
         d="m 82.3799,228.589 h 46.2341 v -40.04 H 82.3799 Z"
         id="path2497" />
    </clipPath>
    <clipPath
       clipPathUnits="userSpaceOnUse"
       id="clipPath2527">
      <path
         d="m 69.1423,204.246 h 2.992 v -3.744 h -2.992 z"
         id="path2525" />
    </clipPath>
    <clipPath
       clipPathUnits="userSpaceOnUse"
       id="clipPath2547">
      <path
         d="m 68.7778,203.856 h 2.6775 v -3.457 h -2.6775 z"
         id="path2545" />
    </clipPath>
    <clipPath
       clipPathUnits="userSpaceOnUse"
       id="clipPath2567">
      <path
         d="m 74.9537,200.892 h 2.992 v -3.744 h -2.992 z"
         id="path2565" />
    </clipPath>
    <clipPath
       clipPathUnits="userSpaceOnUse"
       id="clipPath2587">
      <path
         d="m 74.5892,200.503 h 2.6774 v -3.458 h -2.6774 z"
         id="path2585" />
    </clipPath>
    <clipPath
       clipPathUnits="userSpaceOnUse"
       id="clipPath2607">
      <path
         d="M 36.1445,274.671 H 128.616 V 208.563 H 36.1445 Z"
         id="path2605" />
    </clipPath>
    <clipPath
       clipPathUnits="userSpaceOnUse"
       id="clipPath2627">
      <path
         d="M 36.1459,249.436 H 82.4044 V 208.564 H 36.1459 Z"
         id="path2625" />
    </clipPath>
    <clipPath
       clipPathUnits="userSpaceOnUse"
       id="clipPath2707">
      <path
         d="m 40.6603,240.291 h 0.9627 v -2.507 h -0.9627 z"
         id="path2705" />
    </clipPath>
    <clipPath
       clipPathUnits="userSpaceOnUse"
       id="clipPath2723">
      <path
         d="m 43.7738,238.497 h 0.9626 v -2.508 h -0.9626 z"
         id="path2721" />
    </clipPath>
    <clipPath
       clipPathUnits="userSpaceOnUse"
       id="clipPath2739">
      <path
         d="m 45.3306,237.599 h 0.9626 v -2.507 h -0.9626 z"
         id="path2737" />
    </clipPath>
    <clipPath
       clipPathUnits="userSpaceOnUse"
       id="clipPath2755">
      <path
         d="M 46.8873,236.702 H 47.85 v -2.508 h -0.9627 z"
         id="path2753" />
    </clipPath>
    <clipPath
       clipPathUnits="userSpaceOnUse"
       id="clipPath2771">
      <path
         d="m 51.5576,234.009 h 0.9626 v -2.507 h -0.9626 z"
         id="path2769" />
    </clipPath>
    <clipPath
       clipPathUnits="userSpaceOnUse"
       id="clipPath2787">
      <path
         d="m 54.6711,232.215 h 0.9627 v -2.508 h -0.9627 z"
         id="path2785" />
    </clipPath>
    <clipPath
       clipPathUnits="userSpaceOnUse"
       id="clipPath2803">
      <path
         d="m 56.2278,231.317 h 0.9627 v -2.507 h -0.9627 z"
         id="path2801" />
    </clipPath>
    <clipPath
       clipPathUnits="userSpaceOnUse"
       id="clipPath2819">
      <path
         d="m 57.7846,230.42 h 0.9627 v -2.508 h -0.9627 z"
         id="path2817" />
    </clipPath>
    <clipPath
       clipPathUnits="userSpaceOnUse"
       id="clipPath2835">
      <path
         d="m 60.8981,228.625 h 0.9626 v -2.507 h -0.9626 z"
         id="path2833" />
    </clipPath>
    <clipPath
       clipPathUnits="userSpaceOnUse"
       id="clipPath2851">
      <path
         d="m 62.4549,227.727 h 0.9626 v -2.507 h -0.9626 z"
         id="path2849" />
    </clipPath>
    <clipPath
       clipPathUnits="userSpaceOnUse"
       id="clipPath2871">
      <path
         d="M 37.2272,274.673 H 127.534 V 222.535 H 37.2272 Z"
         id="path2869" />
    </clipPath>
    <clipPath
       clipPathUnits="userSpaceOnUse"
       id="clipPath2899">
      <path
         d="m 69.1423,224.26 h 2.992 v -3.744 h -2.992 z"
         id="path2897" />
    </clipPath>
    <clipPath
       clipPathUnits="userSpaceOnUse"
       id="clipPath2919">
      <path
         d="m 68.7778,223.871 h 2.6775 v -3.458 h -2.6775 z"
         id="path2917" />
    </clipPath>
    <clipPath
       clipPathUnits="userSpaceOnUse"
       id="clipPath2939">
      <path
         d="m 74.9537,220.907 h 2.992 v -3.744 h -2.992 z"
         id="path2937" />
    </clipPath>
    <clipPath
       clipPathUnits="userSpaceOnUse"
       id="clipPath2959">
      <path
         d="m 74.5892,220.517 h 2.6774 v -3.457 h -2.6774 z"
         id="path2957" />
    </clipPath>
    <clipPath
       clipPathUnits="userSpaceOnUse"
       id="clipPath2975">
      <path
         d="M 0,500 H 500 V 0 H 0 Z"
         id="path2973" />
    </clipPath>
    <clipPath
       clipPathUnits="userSpaceOnUse"
       id="clipPath2987">
      <path
         d="m 434.62,272.013 h 36.728 V 198.424 H 434.62 Z"
         id="path2985" />
    </clipPath>
    <clipPath
       clipPathUnits="userSpaceOnUse"
       id="clipPath3015">
      <path
         d="M 0,500 H 500 V 0 H 0 Z"
         id="path3013" />
    </clipPath>
    <clipPath
       clipPathUnits="userSpaceOnUse"
       id="clipPath3027">
      <path
         d="M 240.807,202.263 H 454.413 V 66.874 H 240.807 Z"
         id="path3025" />
    </clipPath>
    <clipPath
       clipPathUnits="userSpaceOnUse"
       id="clipPath3043">
      <path
         d="M 118.02,270.783 H 451.308 V 78.3467 H 118.02 Z"
         id="path3041" />
    </clipPath>
    <clipPath
       clipPathUnits="userSpaceOnUse"
       id="clipPath3059">
      <path
         d="M 114.916,151.961 H 240.804 V 66.8778 H 114.916 Z"
         id="path3057" />
    </clipPath>
    <clipPath
       clipPathUnits="userSpaceOnUse"
       id="clipPath3079">
      <path
         d="M 108.903,446.709 H 328.529 V 319.821 H 108.903 Z"
         id="path3077" />
    </clipPath>
    <clipPath
       clipPathUnits="userSpaceOnUse"
       id="clipPath3095">
      <path
         d="M 114.918,441.717 H 328.526 V 151.582 H 114.918 Z"
         id="path3093" />
    </clipPath>
    <clipPath
       clipPathUnits="userSpaceOnUse"
       id="clipPath3111">
      <path
         d="m 107.358,324.213 h 12.23 V 150.984 h -12.23 z"
         id="path3109" />
    </clipPath>
    <clipPath
       clipPathUnits="userSpaceOnUse"
       id="clipPath3131">
      <path
         d="M 133.771,261.422 H 332.842 V 146.596 H 133.771 Z"
         id="path3129" />
    </clipPath>
    <clipPath
       clipPathUnits="userSpaceOnUse"
       id="clipPath3147">
      <path
         d="M 148.404,252.721 H 392.766 V 111.78 H 148.404 Z"
         id="path3145" />
    </clipPath>
    <clipPath
       clipPathUnits="userSpaceOnUse"
       id="clipPath3167">
      <path
         d="M 153.18,248.605 H 388.163 V 114.134 H 153.18 Z"
         id="path3165" />
    </clipPath>
    <clipPath
       clipPathUnits="userSpaceOnUse"
       id="clipPath3183">
      <path
         d="m 274.724,179.784 h 91.677 v -52.917 h -91.677 z"
         id="path3181" />
    </clipPath>
    <clipPath
       clipPathUnits="userSpaceOnUse"
       id="clipPath3203">
      <path
         d="m 275.934,178.41 h 89.277 v -51.543 h -89.277 z"
         id="path3201" />
    </clipPath>
    <clipPath
       clipPathUnits="userSpaceOnUse"
       id="clipPath3227">
      <path
         d="M 0,500 H 500 V 0 H 0 Z"
         id="path3225" />
    </clipPath>
    <clipPath
       clipPathUnits="userSpaceOnUse"
       id="clipPath3235">
      <path
         d="M 139.247,427.445 H 349.499 V 153.332 H 139.247 Z"
         id="path3233" />
    </clipPath>
    <clipPath
       clipPathUnits="userSpaceOnUse"
       id="clipPath3259">
      <path
         d="M 136.246,429.673 H 348.475 V 306.966 H 136.246 Z"
         id="path3257" />
    </clipPath>
    <clipPath
       clipPathUnits="userSpaceOnUse"
       id="clipPath3275">
      <path
         d="m 135.306,309.235 h 4.867 v -15.404 h -4.867 z"
         id="path3273" />
    </clipPath>
    <clipPath
       clipPathUnits="userSpaceOnUse"
       id="clipPath3303">
      <path
         d="m 135.306,296.141 h 5.05 v -142.5 h -5.05 z"
         id="path3301" />
    </clipPath>
    <clipPath
       clipPathUnits="userSpaceOnUse"
       id="clipPath3391">
      <path
         d="m 199.724,306.891 h 23.863 v -15.262 h -23.863 z"
         id="path3389" />
    </clipPath>
    <clipPath
       clipPathUnits="userSpaceOnUse"
       id="clipPath3411">
      <path
         d="m 199.724,290.705 h 12.331 v -8.551 h -12.331 z"
         id="path3409" />
    </clipPath>
    <clipPath
       clipPathUnits="userSpaceOnUse"
       id="clipPath3431">
      <path
         d="m 199.724,281.213 h 12.331 v -8.551 h -12.331 z"
         id="path3429" />
    </clipPath>
    <clipPath
       clipPathUnits="userSpaceOnUse"
       id="clipPath3451">
      <path
         d="m 199.724,271.721 h 12.331 v -8.551 h -12.331 z"
         id="path3449" />
    </clipPath>
    <clipPath
       clipPathUnits="userSpaceOnUse"
       id="clipPath3471">
      <path
         d="m 199.724,262.229 h 12.331 v -8.551 h -12.331 z"
         id="path3469" />
    </clipPath>
    <clipPath
       clipPathUnits="userSpaceOnUse"
       id="clipPath3491">
      <path
         d="M 225.642,316.822 H 240.83 V 306.653 H 225.642 Z"
         id="path3489" />
    </clipPath>
    <clipPath
       clipPathUnits="userSpaceOnUse"
       id="clipPath3523">
      <path
         d="m 216.165,306.908 h 23.863 v -15.262 h -23.863 z"
         id="path3521" />
    </clipPath>
    <clipPath
       clipPathUnits="userSpaceOnUse"
       id="clipPath3543">
      <path
         d="m 242.083,359.565 h 89.135 V 306.67 h -89.135 z"
         id="path3541" />
    </clipPath>
    <clipPath
       clipPathUnits="userSpaceOnUse"
       id="clipPath3559">
      <path
         d="m 183.931,300.11 h 8.124 V 186.285 h -8.124 z"
         id="path3557" />
    </clipPath>
    <clipPath
       clipPathUnits="userSpaceOnUse"
       id="clipPath3563">
      <path
         d="m 183.931,300.11 h 8.124 v -8.427 h -8.124 z"
         id="path3561" />
    </clipPath>
    <clipPath
       clipPathUnits="userSpaceOnUse"
       id="clipPath3567">
      <path
         d="m 183.931,290.528 h 8.124 v -8.427 h -8.124 z"
         id="path3565" />
    </clipPath>
    <clipPath
       clipPathUnits="userSpaceOnUse"
       id="clipPath3571">
      <path
         d="m 183.931,280.947 h 8.124 v -8.427 h -8.124 z"
         id="path3569" />
    </clipPath>
    <clipPath
       clipPathUnits="userSpaceOnUse"
       id="clipPath3575">
      <path
         d="m 183.931,271.365 h 8.124 v -8.427 h -8.124 z"
         id="path3573" />
    </clipPath>
    <clipPath
       clipPathUnits="userSpaceOnUse"
       id="clipPath3579">
      <path
         d="m 183.931,261.784 h 8.124 v -8.427 h -8.124 z"
         id="path3577" />
    </clipPath>
    <clipPath
       clipPathUnits="userSpaceOnUse"
       id="clipPath3583">
      <path
         d="m 183.931,252.202 h 8.124 v -8.427 h -8.124 z"
         id="path3581" />
    </clipPath>
    <clipPath
       clipPathUnits="userSpaceOnUse"
       id="clipPath3587">
      <path
         d="m 183.931,242.62 h 8.124 v -8.427 h -8.124 z"
         id="path3585" />
    </clipPath>
    <clipPath
       clipPathUnits="userSpaceOnUse"
       id="clipPath3591">
      <path
         d="m 183.931,233.039 h 8.124 v -8.427 h -8.124 z"
         id="path3589" />
    </clipPath>
    <clipPath
       clipPathUnits="userSpaceOnUse"
       id="clipPath3595">
      <path
         d="m 183.931,223.457 h 8.124 v -8.427 h -8.124 z"
         id="path3593" />
    </clipPath>
    <clipPath
       clipPathUnits="userSpaceOnUse"
       id="clipPath3599">
      <path
         d="m 183.931,213.876 h 8.124 v -8.427 h -8.124 z"
         id="path3597" />
    </clipPath>
    <clipPath
       clipPathUnits="userSpaceOnUse"
       id="clipPath3603">
      <path
         d="m 183.931,204.294 h 8.124 v -8.427 h -8.124 z"
         id="path3601" />
    </clipPath>
    <clipPath
       clipPathUnits="userSpaceOnUse"
       id="clipPath3607">
      <path
         d="m 183.931,194.712 h 8.124 v -8.427 h -8.124 z"
         id="path3605" />
    </clipPath>
    <clipPath
       clipPathUnits="userSpaceOnUse"
       id="clipPath3771">
      <path
         d="m 147.372,259.896 h 5.158 v -4.4 h -5.158 z"
         id="path3769" />
    </clipPath>
    <clipPath
       clipPathUnits="userSpaceOnUse"
       id="clipPath3791">
      <path
         d="m 147.372,290.371 h 5.158 v -4.4 h -5.158 z"
         id="path3789" />
    </clipPath>
    <clipPath
       clipPathUnits="userSpaceOnUse"
       id="clipPath3811">
      <path
         d="m 151.542,286.697 h 5.158 v -4.4 h -5.158 z"
         id="path3809" />
    </clipPath>
    <clipPath
       clipPathUnits="userSpaceOnUse"
       id="clipPath3831">
      <path
         d="m 151.542,280.617 h 5.158 v -4.399 h -5.158 z"
         id="path3829" />
    </clipPath>
    <clipPath
       clipPathUnits="userSpaceOnUse"
       id="clipPath3851">
      <path
         d="m 147.372,272.09 h 5.158 v -4.4 h -5.158 z"
         id="path3849" />
    </clipPath>
    <clipPath
       clipPathUnits="userSpaceOnUse"
       id="clipPath3871">
      <path
         d="m 151.542,268.41 h 5.158 v -4.399 h -5.158 z"
         id="path3869" />
    </clipPath>
    <clipPath
       clipPathUnits="userSpaceOnUse"
       id="clipPath3891">
      <path
         d="m 155.497,303.809 h 20.31 v -13.15 h -20.31 z"
         id="path3889" />
    </clipPath>
    <clipPath
       clipPathUnits="userSpaceOnUse"
       id="clipPath3911">
      <path
         d="m 155.497,273.334 h 20.31 v -13.15 h -20.31 z"
         id="path3909" />
    </clipPath>
    <clipPath
       clipPathUnits="userSpaceOnUse"
       id="clipPath3931">
      <path
         d="m 159.667,297.714 h 16.14 v -10.728 h -16.14 z"
         id="path3929" />
    </clipPath>
    <clipPath
       clipPathUnits="userSpaceOnUse"
       id="clipPath3951">
      <path
         d="m 159.667,291.619 h 16.14 v -10.728 h -16.14 z"
         id="path3949" />
    </clipPath>
    <clipPath
       clipPathUnits="userSpaceOnUse"
       id="clipPath3971">
      <path
         d="m 155.497,285.524 h 20.31 v -13.15 h -20.31 z"
         id="path3969" />
    </clipPath>
    <clipPath
       clipPathUnits="userSpaceOnUse"
       id="clipPath3991">
      <path
         d="m 159.667,279.429 h 16.14 v -10.73 h -16.14 z"
         id="path3989" />
    </clipPath>
    <clipPath
       clipPathUnits="userSpaceOnUse"
       id="clipPath4015">
      <path
         d="m 147.372,241.155 h 5.158 v -4.399 h -5.158 z"
         id="path4013" />
    </clipPath>
    <clipPath
       clipPathUnits="userSpaceOnUse"
       id="clipPath4035">
      <path
         d="m 151.542,237.481 h 5.158 v -4.399 h -5.158 z"
         id="path4033" />
    </clipPath>
    <clipPath
       clipPathUnits="userSpaceOnUse"
       id="clipPath4055">
      <path
         d="m 151.542,231.402 h 5.158 v -4.399 h -5.158 z"
         id="path4053" />
    </clipPath>
    <clipPath
       clipPathUnits="userSpaceOnUse"
       id="clipPath4075">
      <path
         d="m 147.372,222.875 h 5.158 v -4.4 h -5.158 z"
         id="path4073" />
    </clipPath>
    <clipPath
       clipPathUnits="userSpaceOnUse"
       id="clipPath4095">
      <path
         d="m 155.497,254.594 h 20.31 v -13.15 h -20.31 z"
         id="path4093" />
    </clipPath>
    <clipPath
       clipPathUnits="userSpaceOnUse"
       id="clipPath4115">
      <path
         d="m 159.667,248.498 h 16.14 v -10.727 h -16.14 z"
         id="path4113" />
    </clipPath>
    <clipPath
       clipPathUnits="userSpaceOnUse"
       id="clipPath4135">
      <path
         d="m 159.667,242.404 h 16.14 v -10.728 h -16.14 z"
         id="path4133" />
    </clipPath>
    <clipPath
       clipPathUnits="userSpaceOnUse"
       id="clipPath4155">
      <path
         d="m 155.497,236.309 h 20.31 v -13.15 h -20.31 z"
         id="path4153" />
    </clipPath>
    <clipPath
       clipPathUnits="userSpaceOnUse"
       id="clipPath4175">
      <path
         d="m 151.542,219.16 h 5.158 v -4.4 h -5.158 z"
         id="path4173" />
    </clipPath>
    <clipPath
       clipPathUnits="userSpaceOnUse"
       id="clipPath4195">
      <path
         d="m 151.542,213.08 h 5.158 v -4.399 h -5.158 z"
         id="path4193" />
    </clipPath>
    <clipPath
       clipPathUnits="userSpaceOnUse"
       id="clipPath4215">
      <path
         d="m 159.667,230.177 h 16.14 v -10.728 h -16.14 z"
         id="path4213" />
    </clipPath>
    <clipPath
       clipPathUnits="userSpaceOnUse"
       id="clipPath4235">
      <path
         d="m 159.667,224.082 h 16.14 v -10.728 h -16.14 z"
         id="path4233" />
    </clipPath>
    <clipPath
       clipPathUnits="userSpaceOnUse"
       id="clipPath4255">
      <path
         d="m 147.372,192.326 h 5.158 v -4.399 h -5.158 z"
         id="path4253" />
    </clipPath>
    <clipPath
       clipPathUnits="userSpaceOnUse"
       id="clipPath4275">
      <path
         d="m 155.497,205.76 h 20.31 v -13.15 h -20.31 z"
         id="path4273" />
    </clipPath>
    <clipPath
       clipPathUnits="userSpaceOnUse"
       id="clipPath4295">
      <path
         d="m 151.542,188.611 h 5.158 v -4.399 h -5.158 z"
         id="path4293" />
    </clipPath>
    <clipPath
       clipPathUnits="userSpaceOnUse"
       id="clipPath4315">
      <path
         d="m 151.542,182.532 h 5.158 v -4.4 h -5.158 z"
         id="path4313" />
    </clipPath>
    <clipPath
       clipPathUnits="userSpaceOnUse"
       id="clipPath4335">
      <path
         d="m 159.667,199.628 h 16.14 v -10.727 h -16.14 z"
         id="path4333" />
    </clipPath>
    <clipPath
       clipPathUnits="userSpaceOnUse"
       id="clipPath4355">
      <path
         d="m 159.667,193.533 h 16.14 v -10.727 h -16.14 z"
         id="path4353" />
    </clipPath>
    <clipPath
       clipPathUnits="userSpaceOnUse"
       id="clipPath4375">
      <path
         d="m 151.542,207.033 h 5.158 v -4.399 h -5.158 z"
         id="path4373" />
    </clipPath>
    <clipPath
       clipPathUnits="userSpaceOnUse"
       id="clipPath4395">
      <path
         d="m 147.372,198.506 h 5.158 v -4.4 h -5.158 z"
         id="path4393" />
    </clipPath>
    <clipPath
       clipPathUnits="userSpaceOnUse"
       id="clipPath4415">
      <path
         d="m 159.667,218.035 h 16.14 v -10.728 h -16.14 z"
         id="path4413" />
    </clipPath>
    <clipPath
       clipPathUnits="userSpaceOnUse"
       id="clipPath4435">
      <path
         d="m 155.497,211.94 h 20.31 v -13.15 h -20.31 z"
         id="path4433" />
    </clipPath>
    <clipPath
       clipPathUnits="userSpaceOnUse"
       id="clipPath4455">
      <path
         d="m 147.372,173.92 h 5.158 v -4.4 h -5.158 z"
         id="path4453" />
    </clipPath>
    <clipPath
       clipPathUnits="userSpaceOnUse"
       id="clipPath4475">
      <path
         d="m 155.497,187.354 h 20.31 v -13.15 h -20.31 z"
         id="path4473" />
    </clipPath>
    <clipPath
       clipPathUnits="userSpaceOnUse"
       id="clipPath4491">
      <path
         d="M 0,500 H 500 V 0 H 0 Z"
         id="path4489" />
    </clipPath>
    <clipPath
       clipPathUnits="userSpaceOnUse"
       id="clipPath4503">
      <path
         d="m 374.859,308.253 h 9.525 v -53.787 h -9.525 z"
         id="path4501" />
    </clipPath>
    <clipPath
       clipPathUnits="userSpaceOnUse"
       id="clipPath4519">
      <path
         d="m 375.286,329.208 h 44.558 v -25.635 h -44.558 z"
         id="path4517" />
    </clipPath>
    <clipPath
       clipPathUnits="userSpaceOnUse"
       id="clipPath4539">
      <path
         d="m 362.926,292.98 h 20.095 v -20.719 h -20.095 z"
         id="path4537" />
    </clipPath>
    <clipPath
       clipPathUnits="userSpaceOnUse"
       id="clipPath4567">
      <path
         d="m 374.859,375.805 h 9.525 v -53.787 h -9.525 z"
         id="path4565" />
    </clipPath>
    <clipPath
       clipPathUnits="userSpaceOnUse"
       id="clipPath4583">
      <path
         d="m 375.286,396.761 h 44.558 v -25.636 h -44.558 z"
         id="path4581" />
    </clipPath>
    <clipPath
       clipPathUnits="userSpaceOnUse"
       id="clipPath4603">
      <path
         d="m 362.926,360.532 h 20.095 v -20.718 h -20.095 z"
         id="path4601" />
    </clipPath>
    <clipPath
       clipPathUnits="userSpaceOnUse"
       id="clipPath4635">
      <path
         d="m 374.859,443.358 h 9.525 V 389.57 h -9.525 z"
         id="path4633" />
    </clipPath>
    <clipPath
       clipPathUnits="userSpaceOnUse"
       id="clipPath4651">
      <path
         d="m 375.286,464.313 h 44.558 v -25.635 h -44.558 z"
         id="path4649" />
    </clipPath>
    <clipPath
       clipPathUnits="userSpaceOnUse"
       id="clipPath4671">
      <path
         d="m 362.926,428.084 h 20.095 v -20.718 h -20.095 z"
         id="path4669" />
    </clipPath>
    <clipPath
       clipPathUnits="userSpaceOnUse"
       id="clipPath4703">
      <path
         d="M 0,500 H 500 V 0 H 0 Z"
         id="path4701" />
    </clipPath>
    <clipPath
       clipPathUnits="userSpaceOnUse"
       id="clipPath4895">
      <path
         d="m 335.52,162.601 h 37.832 V 139.397 H 335.52 Z"
         id="path4893" />
    </clipPath>
  </defs>
  <g
     inkscape:label="Camada 1"
     inkscape:groupmode="layer"
     id="layer1">
    <g
       id="g15"
       inkscape:label="3190341"
       transform="matrix(0.35277777,0,0,-0.35277777,31.441107,214.60089)">
      <g
         id="g17">
        <g
           id="g19"
           clip-path="url(#clipPath23)" />
      </g>
      <g
         id="g29">
        <g
           id="g31"
           clip-path="url(#clipPath35)">
          <g
             id="g37"
             transform="translate(235.6562,58.7676)" />
          <g
             id="g41"
             transform="translate(26.5928,156.1782)" />
        </g>
      </g>
      <g
         id="g4485">
        <g
           id="g4487"
           clip-path="url(#clipPath4491)"
           transform="translate(207.83495,6.3299984)">
          <g
             id="g4493"
             transform="translate(410.3379,328.8765)">
            <path
               d="m 0,0 -34.115,-19.655 c -0.753,-0.434 -1.364,-1.491 -1.364,-2.36 v -46.658 c 0,-0.869 0.615,-1.918 1.372,-2.346 l 5.42,-3.082 c 0.757,-0.427 1.981,-0.421 2.733,0.014 l 34.116,19.654 c 0.752,0.434 1.362,1.491 1.362,2.36 v 46.657 c 0,0.869 -0.613,1.92 -1.37,2.347 L 2.733,0.013 C 1.977,0.44 0.753,0.435 0,0"
               style="fill:#27debf;fill-opacity:1;fill-rule:nonzero;stroke:none"
               id="path4495" />
          </g>
          <g
             id="g4497">
            <g
               id="g4499" />
            <g
               id="g4511">
              <g
                 clip-path="url(#clipPath4503)"
                 opacity="0.199997"
                 id="g4509">
                <g
                   transform="translate(384.3838,254.7891)"
                   id="g4507">
                  <path
                     d="m 0,0 c -0.725,-0.421 -2.05,-0.436 -2.735,-0.016 l -5.418,3.088 c -0.755,0.421 -1.371,1.474 -1.371,2.343 v 46.658 c 0,0.453 0.169,0.95 0.433,1.391 l 8.131,-4.68 C -1.212,48.362 -1.362,47.878 -1.362,47.443 V 0.79 C -1.362,-0.006 -0.802,-0.465 0,0"
                     style="fill:#000000;fill-opacity:1;fill-rule:nonzero;stroke:none"
                     id="path4505" />
                </g>
              </g>
            </g>
          </g>
          <g
             id="g4513">
            <g
               id="g4515" />
            <g
               id="g4527">
              <g
                 clip-path="url(#clipPath4519)"
                 opacity="0.399994"
                 id="g4525">
                <g
                   transform="translate(419.8437,323.7075)"
                   id="g4523">
                  <path
                     d="m 0,0 c -0.106,0.686 -0.667,0.932 -1.347,0.542 l -34.11,-19.657 c -0.377,-0.22 -0.718,-0.591 -0.963,-1.019 l -8.138,4.679 c 0.246,0.41 0.574,0.762 0.939,0.97 L -9.503,5.171 c 0.749,0.434 1.971,0.441 2.732,0.013 L -1.353,2.103 C -0.667,1.712 -0.094,0.812 0,0"
                     style="fill:#ffffff;fill-opacity:1;fill-rule:nonzero;stroke:none"
                     id="path4521" />
                </g>
              </g>
            </g>
          </g>
          <g
             id="g4529"
             transform="translate(371.125,272.2612)">
            <path
               d="M 0,0 C -0.856,0.51 -7.382,4.187 -7.59,4.307 -8.219,4.691 -8.445,5.623 -7.86,6.252 L 3.734,20.718 11.896,16.038 -0.231,1.911 C -0.798,1.307 -0.573,0.416 0,0"
               style="fill:#27debf;fill-opacity:1;fill-rule:nonzero;stroke:none"
               id="path4531" />
          </g>
          <g
             id="g4533">
            <g
               id="g4535" />
            <g
               id="g4547">
              <g
                 clip-path="url(#clipPath4539)"
                 opacity="0.399994"
                 id="g4545">
                <g
                   transform="translate(371.125,272.2612)"
                   id="g4543">
                  <path
                     d="M 0,0 C -0.856,0.51 -7.382,4.187 -7.59,4.307 -8.219,4.691 -8.445,5.623 -7.86,6.252 L 3.734,20.718 11.896,16.038 -0.231,1.911 C -0.798,1.307 -0.573,0.416 0,0"
                     style="fill:#ffffff;fill-opacity:1;fill-rule:nonzero;stroke:none"
                     id="path4541" />
                </g>
              </g>
            </g>
          </g>
          <g
             id="g4549"
             transform="translate(418.5,324.2471)">
            <path
               d="m 0,0 -34.116,-19.654 c -0.752,-0.435 -1.363,-1.492 -1.363,-2.361 v -13.936 l -12.13,-14.122 c -0.786,-0.843 -0.209,-1.999 0.779,-2.09 l 11.351,-1.517 v 0 -14.991 c 0,-0.87 0.611,-1.222 1.363,-0.787 L 0,-49.804 c 0.752,0.435 1.362,1.491 1.362,2.361 V -0.787 C 1.362,0.083 0.752,0.435 0,0"
               style="fill:#27debf;fill-opacity:1;fill-rule:nonzero;stroke:none"
               id="path4551" />
          </g>
          <g
             id="g4553"
             transform="translate(407.0527,288.4956)">
            <path
               d="m 0,0 c -1.011,-4.497 -4.209,-8.423 -7.145,-8.771 -2.934,-0.347 -4.495,3.017 -3.484,7.514 1.01,4.496 4.209,8.423 7.144,8.771 C -0.55,7.86 1.01,4.497 0,0 M 7.581,3.873 4.826,4.015 C 4.632,4.025 4.49,4.293 4.498,4.617 4.517,5.422 4.48,6.19 4.393,6.913 c -0.04,0.326 0.03,0.749 0.17,0.948 l 2.726,3.868 c 0.141,0.2 0.153,0.582 0.027,0.853 L 5.959,15.509 C 5.833,15.78 5.604,15.866 5.447,15.701 L 2.413,12.497 C 2.257,12.332 1.987,12.339 1.806,12.49 1.402,12.825 0.959,13.093 0.478,13.284 0.284,13.361 0.165,13.657 0.212,13.963 l 0.672,4.349 c 0.047,0.306 -0.071,0.537 -0.262,0.514 l -3.216,-0.38 C -2.785,18.423 -3.008,18.178 -3.09,17.897 L -4.424,13.359 C -4.506,13.079 -4.72,12.783 -4.899,12.689 -5.59,12.33 -6.273,11.875 -6.942,11.337 -7.11,11.203 -7.367,11.276 -7.519,11.509 l -1.494,2.294 c -0.151,0.232 -0.394,0.272 -0.544,0.09 L -12.734,9.991 C -12.883,9.808 -12.926,9.416 -12.83,9.115 l 0.945,-2.967 c 0.096,-0.3 0.07,-0.723 -0.056,-0.948 -0.501,-0.899 -0.958,-1.845 -1.36,-2.825 -0.104,-0.256 -0.338,-0.509 -0.526,-0.561 l -3.048,-0.841 c -0.188,-0.052 -0.395,-0.332 -0.46,-0.626 l -1.107,-4.927 c -0.067,-0.294 0.038,-0.541 0.232,-0.55 l 2.754,-0.142 c 0.194,-0.011 0.337,-0.278 0.329,-0.602 -0.019,-0.806 0.018,-1.573 0.105,-2.296 0.04,-0.326 -0.031,-0.749 -0.171,-0.949 l -2.726,-3.868 c -0.141,-0.2 -0.153,-0.581 -0.027,-0.853 l 1.358,-2.926 c 0.125,-0.272 0.355,-0.358 0.511,-0.192 l 3.034,3.204 c 0.157,0.165 0.426,0.158 0.607,0.006 0.405,-0.335 0.848,-0.603 1.33,-0.794 0.193,-0.077 0.312,-0.372 0.264,-0.679 l -0.672,-4.348 c -0.047,-0.307 0.071,-0.537 0.263,-0.515 l 3.215,0.381 c 0.192,0.022 0.414,0.268 0.497,0.548 l 1.333,4.539 c 0.082,0.28 0.296,0.576 0.476,0.67 0.69,0.359 1.374,0.814 2.042,1.351 0.168,0.135 0.425,0.061 0.577,-0.172 l 1.494,-2.293 c 0.151,-0.232 0.394,-0.273 0.544,-0.09 l 3.177,3.901 c 0.149,0.184 0.192,0.576 0.096,0.876 l -0.945,2.967 c -0.096,0.301 -0.069,0.723 0.057,0.949 0.5,0.899 0.958,1.844 1.359,2.825 0.104,0.255 0.338,0.508 0.526,0.56 l 3.049,0.841 c 0.188,0.052 0.394,0.333 0.46,0.627 L 7.812,3.322 C 7.879,3.616 7.775,3.863 7.581,3.873"
               style="fill:#fafafa;fill-opacity:1;fill-rule:nonzero;stroke:none"
               id="path4555" />
          </g>
          <g
             id="g4557"
             transform="translate(410.3379,396.4287)">
            <path
               d="m 0,0 -34.115,-19.654 c -0.753,-0.435 -1.364,-1.492 -1.364,-2.361 v -46.658 c 0,-0.869 0.615,-1.918 1.372,-2.346 l 5.42,-3.082 c 0.757,-0.427 1.981,-0.421 2.733,0.014 l 34.116,19.654 c 0.752,0.434 1.362,1.491 1.362,2.36 v 46.657 c 0,0.869 -0.613,1.92 -1.37,2.347 L 2.733,0.013 C 1.977,0.44 0.753,0.435 0,0"
               style="fill:#27debf;fill-opacity:1;fill-rule:nonzero;stroke:none"
               id="path4559" />
          </g>
          <g
             id="g4561">
            <g
               id="g4563" />
            <g
               id="g4575">
              <g
                 clip-path="url(#clipPath4567)"
                 opacity="0.199997"
                 id="g4573">
                <g
                   transform="translate(384.3838,322.3413)"
                   id="g4571">
                  <path
                     d="m 0,0 c -0.725,-0.421 -2.05,-0.436 -2.735,-0.016 l -5.418,3.088 c -0.755,0.421 -1.371,1.474 -1.371,2.343 v 46.658 c 0,0.453 0.169,0.95 0.433,1.391 l 8.131,-4.68 C -1.212,48.362 -1.362,47.878 -1.362,47.443 V 0.79 C -1.362,-0.006 -0.802,-0.465 0,0"
                     style="fill:#000000;fill-opacity:1;fill-rule:nonzero;stroke:none"
                     id="path4569" />
                </g>
              </g>
            </g>
          </g>
          <g
             id="g4577">
            <g
               id="g4579" />
            <g
               id="g4591">
              <g
                 clip-path="url(#clipPath4583)"
                 opacity="0.399994"
                 id="g4589">
                <g
                   transform="translate(419.8437,391.2598)"
                   id="g4587">
                  <path
                     d="m 0,0 c -0.106,0.686 -0.667,0.932 -1.347,0.542 l -34.11,-19.657 c -0.377,-0.22 -0.718,-0.591 -0.963,-1.019 l -8.138,4.679 c 0.246,0.41 0.574,0.762 0.939,0.97 L -9.503,5.171 c 0.749,0.434 1.971,0.441 2.732,0.013 L -1.353,2.103 C -0.667,1.712 -0.094,0.812 0,0"
                     style="fill:#ffffff;fill-opacity:1;fill-rule:nonzero;stroke:none"
                     id="path4585" />
                </g>
              </g>
            </g>
          </g>
          <g
             id="g4593"
             transform="translate(371.125,339.8135)">
            <path
               d="M 0,0 C -0.856,0.51 -7.382,4.187 -7.59,4.307 -8.219,4.691 -8.445,5.623 -7.86,6.252 L 3.734,20.719 11.896,16.038 -0.231,1.911 C -0.798,1.307 -0.573,0.416 0,0"
               style="fill:#27debf;fill-opacity:1;fill-rule:nonzero;stroke:none"
               id="path4595" />
          </g>
          <g
             id="g4597">
            <g
               id="g4599" />
            <g
               id="g4611">
              <g
                 clip-path="url(#clipPath4603)"
                 opacity="0.399994"
                 id="g4609">
                <g
                   transform="translate(371.125,339.8135)"
                   id="g4607">
                  <path
                     d="M 0,0 C -0.856,0.51 -7.382,4.187 -7.59,4.307 -8.219,4.691 -8.445,5.623 -7.86,6.252 L 3.734,20.719 11.896,16.038 -0.231,1.911 C -0.798,1.307 -0.573,0.416 0,0"
                     style="fill:#ffffff;fill-opacity:1;fill-rule:nonzero;stroke:none"
                     id="path4605" />
                </g>
              </g>
            </g>
          </g>
          <g
             id="g4613"
             transform="translate(418.5,391.7993)">
            <path
               d="m 0,0 -34.116,-19.654 c -0.752,-0.435 -1.363,-1.492 -1.363,-2.361 v -13.936 l -12.13,-14.122 c -0.786,-0.843 -0.209,-1.999 0.779,-2.09 l 11.351,-1.517 v 0 -14.991 c 0,-0.87 0.611,-1.222 1.363,-0.787 L 0,-49.804 c 0.752,0.435 1.362,1.491 1.362,2.361 V -0.787 C 1.362,0.083 0.752,0.435 0,0"
               style="fill:#27debf;fill-opacity:1;fill-rule:nonzero;stroke:none"
               id="path4615" />
          </g>
          <g
             id="g4617"
             transform="translate(389.8164,350.4658)">
            <path
               d="M 0,0 C 0,0.52 0.169,0.993 0.507,1.421 L 0.804,1.78 c 0.337,0.41 0.579,0.921 0.723,1.533 0.146,0.613 0.219,1.207 0.219,1.78 0,1.361 0.178,2.633 0.532,3.814 0.355,1.181 0.812,2.252 1.37,3.21 0.559,0.958 1.185,1.785 1.877,2.481 0.693,0.695 1.381,1.241 2.069,1.637 0.104,0.061 0.195,0.055 0.27,-0.018 0.076,-0.072 0.114,-0.19 0.114,-0.351 V 12.184 C 7.978,12.022 7.942,11.869 7.873,11.721 7.803,11.573 7.727,11.466 7.646,11.401 7.332,11.167 7.038,10.898 6.765,10.597 6.49,10.295 6.252,9.965 6.049,9.606 5.846,9.247 5.687,8.842 5.577,8.393 5.467,7.944 5.411,7.451 5.411,6.913 5.411,6.322 5.377,5.751 5.308,5.201 5.237,4.649 5.141,4.146 5.019,3.69 4.897,3.234 4.76,2.833 4.608,2.486 4.457,2.139 4.3,1.873 4.138,1.689 4.3,1.693 4.457,1.602 4.608,1.411 4.76,1.221 4.897,0.959 5.019,0.627 5.141,0.294 5.237,-0.104 5.308,-0.564 c 0.069,-0.462 0.103,-0.961 0.103,-1.499 0,-0.538 0.056,-0.966 0.166,-1.288 0.11,-0.321 0.269,-0.544 0.472,-0.669 0.203,-0.124 0.441,-0.179 0.716,-0.164 0.273,0.015 0.567,0.086 0.881,0.213 0.081,0.029 0.157,0.01 0.227,-0.057 0.069,-0.067 0.105,-0.181 0.105,-0.342 V -8.053 C 7.978,-8.214 7.94,-8.374 7.864,-8.534 7.789,-8.694 7.698,-8.805 7.594,-8.865 6.906,-9.262 6.218,-9.512 5.525,-9.616 4.833,-9.72 4.207,-9.615 3.648,-9.302 c -0.558,0.313 -1.015,0.856 -1.37,1.628 -0.354,0.771 -0.532,1.838 -0.532,3.199 0,0.574 -0.073,1.082 -0.219,1.527 -0.144,0.444 -0.386,0.677 -0.723,0.698 L 0.507,-2.234 C 0.169,-2.197 0,-1.917 0,-1.397 Z"
               style="fill:#ffffff;fill-opacity:1;fill-rule:nonzero;stroke:none"
               id="path4619" />
          </g>
          <g
             id="g4621"
             transform="translate(413.0664,362.4917)">
            <path
               d="M 0,0 C 0,-0.52 -0.169,-0.994 -0.506,-1.421 L -0.803,-1.78 c -0.338,-0.411 -0.579,-0.922 -0.724,-1.534 -0.146,-0.613 -0.218,-1.206 -0.218,-1.779 0,-1.361 -0.178,-2.634 -0.533,-3.814 -0.355,-1.181 -0.811,-2.252 -1.37,-3.21 -0.558,-0.958 -1.184,-1.785 -1.876,-2.481 -0.693,-0.695 -1.383,-1.241 -2.069,-1.637 -0.104,-0.061 -0.195,-0.055 -0.27,0.018 -0.076,0.072 -0.114,0.19 -0.114,0.351 v 3.682 c 0,0.162 0.035,0.315 0.105,0.463 0.069,0.148 0.144,0.254 0.226,0.32 0.315,0.234 0.609,0.503 0.882,0.804 0.274,0.301 0.512,0.632 0.716,0.991 0.203,0.359 0.361,0.764 0.472,1.213 0.109,0.449 0.165,0.942 0.165,1.48 0,0.537 0.035,1.077 0.105,1.619 0.07,0.541 0.166,1.05 0.287,1.523 0.123,0.474 0.259,0.893 0.411,1.258 0.151,0.366 0.308,0.639 0.471,0.823 -0.163,-0.004 -0.32,0.08 -0.471,0.252 -0.152,0.172 -0.288,0.416 -0.411,0.731 -0.121,0.314 -0.217,0.707 -0.287,1.178 -0.07,0.47 -0.105,1.001 -0.105,1.592 0,0.538 -0.056,0.966 -0.165,1.288 C -5.687,3.672 -5.845,3.895 -6.048,4.02 -6.252,4.143 -6.49,4.198 -6.764,4.184 -7.037,4.169 -7.331,4.098 -7.646,3.971 -7.728,3.941 -7.803,3.961 -7.872,4.028 -7.942,4.095 -7.977,4.209 -7.977,4.37 v 3.683 c 0,0.161 0.038,0.321 0.114,0.481 0.075,0.16 0.166,0.271 0.27,0.331 0.686,0.396 1.376,0.647 2.069,0.751 0.692,0.104 1.318,-10e-4 1.876,-0.314 0.559,-0.313 1.015,-0.856 1.37,-1.628 0.355,-0.772 0.533,-1.838 0.533,-3.199 0,-0.574 0.072,-1.083 0.218,-1.528 0.145,-0.444 0.386,-0.676 0.724,-0.697 L -0.506,2.234 C -0.169,2.195 0,1.917 0,1.397 Z"
               style="fill:#ffffff;fill-opacity:1;fill-rule:nonzero;stroke:none"
               id="path4623" />
          </g>
          <g
             id="g4625"
             transform="translate(410.3379,463.981)">
            <path
               d="m 0,0 -34.115,-19.654 c -0.753,-0.435 -1.364,-1.492 -1.364,-2.361 v -46.658 c 0,-0.869 0.615,-1.918 1.372,-2.346 l 5.42,-3.082 c 0.757,-0.427 1.981,-0.421 2.733,0.014 l 34.116,19.654 c 0.752,0.434 1.362,1.491 1.362,2.36 v 46.657 c 0,0.869 -0.613,1.92 -1.37,2.347 L 2.733,0.013 C 1.977,0.44 0.753,0.435 0,0"
               style="fill:#27debf;fill-opacity:1;fill-rule:nonzero;stroke:none"
               id="path4627" />
          </g>
          <g
             id="g4629">
            <g
               id="g4631" />
            <g
               id="g4643">
              <g
                 clip-path="url(#clipPath4635)"
                 opacity="0.199997"
                 id="g4641">
                <g
                   transform="translate(384.3838,389.8936)"
                   id="g4639">
                  <path
                     d="m 0,0 c -0.725,-0.421 -2.05,-0.436 -2.735,-0.016 l -5.418,3.088 c -0.755,0.421 -1.371,1.474 -1.371,2.343 v 46.658 c 0,0.453 0.169,0.95 0.433,1.391 l 8.131,-4.68 C -1.212,48.362 -1.362,47.878 -1.362,47.443 V 0.79 C -1.362,-0.006 -0.802,-0.465 0,0"
                     style="fill:#000000;fill-opacity:1;fill-rule:nonzero;stroke:none"
                     id="path4637" />
                </g>
              </g>
            </g>
          </g>
          <g
             id="g4645">
            <g
               id="g4647" />
            <g
               id="g4659">
              <g
                 clip-path="url(#clipPath4651)"
                 opacity="0.399994"
                 id="g4657">
                <g
                   transform="translate(419.8437,458.812)"
                   id="g4655">
                  <path
                     d="m 0,0 c -0.106,0.687 -0.667,0.932 -1.347,0.542 l -34.11,-19.657 c -0.377,-0.22 -0.718,-0.591 -0.963,-1.019 l -8.138,4.68 c 0.246,0.409 0.574,0.761 0.939,0.969 L -9.503,5.171 c 0.749,0.434 1.971,0.441 2.732,0.013 L -1.353,2.103 C -0.667,1.712 -0.094,0.812 0,0"
                     style="fill:#ffffff;fill-opacity:1;fill-rule:nonzero;stroke:none"
                     id="path4653" />
                </g>
              </g>
            </g>
          </g>
          <g
             id="g4661"
             transform="translate(371.125,407.3657)">
            <path
               d="M 0,0 C -0.856,0.51 -7.382,4.187 -7.59,4.307 -8.219,4.691 -8.445,5.623 -7.86,6.252 L 3.734,20.718 11.896,16.038 -0.231,1.911 C -0.798,1.307 -0.573,0.416 0,0"
               style="fill:#27debf;fill-opacity:1;fill-rule:nonzero;stroke:none"
               id="path4663" />
          </g>
          <g
             id="g4665">
            <g
               id="g4667" />
            <g
               id="g4679">
              <g
                 clip-path="url(#clipPath4671)"
                 opacity="0.399994"
                 id="g4677">
                <g
                   transform="translate(371.125,407.3657)"
                   id="g4675">
                  <path
                     d="M 0,0 C -0.856,0.51 -7.382,4.187 -7.59,4.307 -8.219,4.691 -8.445,5.623 -7.86,6.252 L 3.734,20.718 11.896,16.038 -0.231,1.911 C -0.798,1.307 -0.573,0.416 0,0"
                     style="fill:#ffffff;fill-opacity:1;fill-rule:nonzero;stroke:none"
                     id="path4673" />
                </g>
              </g>
            </g>
          </g>
          <g
             id="g4681"
             transform="translate(418.5,459.3516)">
            <path
               d="m 0,0 -34.116,-19.654 c -0.752,-0.435 -1.363,-1.492 -1.363,-2.361 v -13.936 l -12.13,-14.122 c -0.786,-0.843 -0.209,-1.999 0.779,-2.09 l 11.351,-1.517 v 0 -14.991 c 0,-0.87 0.611,-1.222 1.363,-0.787 L 0,-49.804 c 0.752,0.435 1.362,1.491 1.362,2.361 V -0.787 C 1.362,0.083 0.752,0.435 0,0"
               style="fill:#27debf;fill-opacity:1;fill-rule:nonzero;stroke:none"
               id="path4683" />
          </g>
          <g
             id="g4685"
             transform="translate(387.415,416.6196)">
            <path
               d="M 0,0 C 0,0.286 0.045,0.531 0.132,0.734 0.219,0.937 0.344,1.165 0.507,1.42 l 6.982,11.288 c 0.046,0.062 0.084,0.106 0.114,0.133 0.029,0.026 0.054,0.045 0.079,0.058 0.104,0.061 0.191,0.058 0.26,-0.01 0.071,-0.067 0.106,-0.181 0.106,-0.343 V 8.193 C 8.048,7.834 7.98,7.532 7.847,7.284 7.713,7.037 7.594,6.838 7.489,6.688 L 4.435,1.996 7.489,0.803 C 7.594,0.773 7.713,0.716 7.847,0.633 7.98,0.549 8.048,0.328 8.048,-0.031 V -4.384 C 8.048,-4.545 8.013,-4.7 7.942,-4.848 7.873,-4.996 7.786,-5.1 7.682,-5.16 7.657,-5.174 7.632,-5.184 7.603,-5.192 7.573,-5.2 7.535,-5.2 7.489,-5.19 L 0.507,-1.965 C 0.344,-1.898 0.219,-1.813 0.132,-1.711 0.045,-1.61 0,-1.416 0,-1.129 Z"
               style="fill:#ffffff;fill-opacity:1;fill-rule:nonzero;stroke:none"
               id="path4687" />
          </g>
          <g
             id="g4689"
             transform="translate(402.6367,435.7544)">
            <path
               d="M 0,0 C 0.059,0.23 0.146,0.464 0.262,0.702 0.378,0.939 0.547,1.121 0.769,1.249 L 3.107,2.6 C 3.212,2.66 3.302,2.653 3.378,2.581 3.453,2.508 3.491,2.392 3.491,2.23 3.491,2.158 3.479,2.071 3.456,1.968 l -5.9,-25.148 c -0.046,-0.205 -0.127,-0.432 -0.244,-0.678 -0.117,-0.246 -0.291,-0.437 -0.524,-0.572 l -2.287,-1.32 c -0.104,-0.06 -0.194,-0.054 -0.27,0.019 -0.076,0.073 -0.114,0.19 -0.114,0.351 0,0.071 0.012,0.159 0.036,0.262 z"
               style="fill:#ffffff;fill-opacity:1;fill-rule:nonzero;stroke:none"
               id="path4691" />
          </g>
          <g
             id="g4693"
             transform="translate(415.4668,431.686)">
            <path
               d="m 0,0 c 0,-0.287 -0.044,-0.532 -0.131,-0.734 -0.088,-0.203 -0.213,-0.432 -0.376,-0.687 l -6.982,-11.287 c -0.046,-0.063 -0.084,-0.108 -0.114,-0.133 -0.028,-0.026 -0.054,-0.046 -0.078,-0.059 -0.105,-0.061 -0.192,-0.058 -0.261,0.01 -0.071,0.067 -0.105,0.182 -0.105,0.343 v 4.353 c 0,0.359 0.067,0.657 0.2,0.895 0.134,0.238 0.254,0.434 0.358,0.584 l 3.054,4.719 -3.054,1.165 c -0.104,0.03 -0.224,0.091 -0.358,0.184 -0.133,0.093 -0.2,0.318 -0.2,0.677 v 4.353 c 0,0.161 0.034,0.316 0.105,0.464 0.069,0.148 0.156,0.252 0.261,0.312 0.024,0.014 0.05,0.025 0.078,0.033 0.03,0.007 0.068,0.006 0.114,-0.002 L -0.507,1.964 C -0.344,1.897 -0.219,1.813 -0.131,1.711 -0.044,1.609 0,1.415 0,1.129 Z"
               style="fill:#ffffff;fill-opacity:1;fill-rule:nonzero;stroke:none"
               id="path4695" />
          </g>
        </g>
      </g>
      <g
         id="g4697"
         transform="matrix(1.4777336,0,0,1.4777336,-200.04216,-192.30792)">
        <g
           id="g4699"
           clip-path="url(#clipPath4703)">
          <g
             id="g4705"
             transform="translate(329.2197,218.1611)">
            <path
               d="m 0,0 c 5.256,-0.807 8.459,-3.801 8.612,-7.95 0.155,-4.15 -6.389,-20.045 -6.389,-20.045 7.234,-6.556 12.193,-10.896 15.728,-13.408 2.786,-1.98 10.371,-11.134 10.149,-12.971 -0.223,-1.837 -3.286,1.927 -5.261,3.858 -1.975,1.932 -5.787,2.266 -10.056,4.316 -4.269,2.051 -18.405,9.155 -20.242,11.711 C -9.296,-31.934 0,0 0,0"
               style="fill:#ffa8a7;fill-opacity:1;fill-rule:nonzero;stroke:none"
               id="path4707" />
          </g>
          <g
             id="g4709"
             transform="translate(328.7344,218.2617)">
            <path
               d="M 0,0 C 0,0 2.265,-0.022 4.526,-1.069 6.787,-2.116 8.851,-4.383 9.231,-6.697 9.613,-9.012 8.709,-12.858 7.098,-17.054 5.487,-21.25 3.028,-25.856 3.028,-25.856 L 0,-23.426 Z"
               style="fill:#280b0b;fill-opacity:1;fill-rule:nonzero;stroke:none"
               id="path4711" />
          </g>
          <g
             id="g4713"
             transform="translate(362.6621,100.9888)">
            <path
               d="m 0,0 c 0,0 1.345,-9.186 4.032,-12.601 2.422,-3.078 4.163,-7.003 7.038,-10.208 0.626,-0.698 2.046,-1.991 2.558,-2.555 0.456,-0.503 0.539,-1.092 -0.086,-1.711 -1.231,-1.22 -6.536,-1.599 -9.553,0.578 -3.015,2.178 -6.011,6.371 -7.818,8.135 -0.904,0.883 -1.754,1.727 -2.377,2.349 -0.599,0.597 -0.842,1.46 -0.639,2.281 0.058,0.232 0.121,0.506 0.192,0.826 0.378,1.722 -2.011,8.721 -2.011,8.721 z"
               style="fill:#ffa8a7;fill-opacity:1;fill-rule:nonzero;stroke:none"
               id="path4715" />
          </g>
          <g
             id="g4717"
             transform="translate(356.2607,83.1318)">
            <path
               d="m 0,0 c 0,0 -0.006,-0.992 0.294,-1.651 0.3,-0.659 1.834,-1.636 2.81,-2.094 0.975,-0.458 2.128,-1.246 3.082,-3.192 1.018,-2.079 3.015,-4.079 5.237,-5.046 2.222,-0.967 5.496,-1.571 9.411,-0.788 3.916,0.783 4.189,3.105 4.189,3.105 0,0 0.164,2.184 -0.82,2.508 C 23.218,-6.833 0,0 0,0"
               style="fill:#263238;fill-opacity:1;fill-rule:nonzero;stroke:none"
               id="path4719" />
          </g>
          <g
             id="g4721"
             transform="translate(355.2461,92.7222)">
            <path
               d="M 0,0 C 0.46,-2.394 0.357,-4.418 0.267,-5.647 0.182,-6.79 0.157,-8.589 1.015,-9.59 c 1.188,-1.582 3.683,-2.056 5.305,-4.216 1.621,-2.159 4.026,-6.074 9.192,-6.996 5.166,-0.922 9.039,0.79 9.961,2.273 0.923,1.483 0.027,2.846 -3.306,4.562 -3.538,1.822 -8.256,7.365 -8.256,7.365 -1.254,1.653 -2.525,3.28 -3.328,5.536 L 9.328,2.928 C 9.053,3.706 3.499,2.033 2.911,0.922 L 3.58,-2.622 2.153,0.726 C 1.011,0.746 0.747,0.353 0,0"
               style="fill:#455a64;fill-opacity:1;fill-rule:nonzero;stroke:none"
               id="path4723" />
          </g>
          <g
             id="g4725"
             transform="translate(367.4014,73.083)">
            <path
               d="m 0,0 c 0,0 -0.141,3.601 3.701,5.661 3.841,2.059 6.224,0.826 7.427,-0.005 1.434,-0.99 3.497,-3.075 2.3,-4.642 -1.294,-1.692 -3.402,-2.526 -7.36,-2.65 C 2.11,-1.759 0,0 0,0"
               style="fill:#fafafa;fill-opacity:1;fill-rule:nonzero;stroke:none"
               id="path4727" />
          </g>
          <g
             id="g4729"
             transform="translate(361.8516,85.0083)">
            <path
               d="M 0,0 C 0.137,0.007 0.268,0.074 0.349,0.191 0.778,0.813 3.556,3.164 6.297,2.458 6.431,2.775 6.195,3.096 5.629,3.42 2.759,3.621 0.121,1.411 -0.396,0.66 -0.532,0.463 -0.475,0.199 -0.27,0.07 -0.187,0.017 -0.093,-0.004 0,0"
               style="fill:#fafafa;fill-opacity:1;fill-rule:nonzero;stroke:none"
               id="path4731" />
          </g>
          <g
             id="g4733"
             transform="translate(369.752,85.4458)">
            <path
               d="m 0,0 c -0.052,0.41 -0.5,0.845 -0.791,0.933 -2.725,0.004 -5.171,-2.058 -5.668,-2.779 -0.136,-0.196 -0.078,-0.46 0.127,-0.59 0.083,-0.052 0.177,-0.074 0.27,-0.069 0.136,0.006 0.267,0.073 0.348,0.191 C -5.297,-1.71 -2.66,0.517 0,0"
               style="fill:#fafafa;fill-opacity:1;fill-rule:nonzero;stroke:none"
               id="path4735" />
          </g>
          <g
             id="g4737"
             transform="translate(366.916,89.3291)">
            <path
               d="m 0,0 c 0.136,0.488 0,0.866 -0.556,1.064 -3.135,0.682 -6.183,-1.844 -6.743,-2.659 -0.136,-0.196 -0.078,-0.46 0.128,-0.589 0.083,-0.052 0.177,-0.074 0.269,-0.069 0.136,0.006 0.268,0.073 0.348,0.191 C -6.093,-1.394 -2.918,1.269 0,0"
               style="fill:#fafafa;fill-opacity:1;fill-rule:nonzero;stroke:none"
               id="path4739" />
          </g>
          <g
             id="g4741"
             transform="translate(374.1182,81.1113)">
            <path
               d="m 0,0 c -0.237,0.478 -0.657,0.852 -1.241,1.123 -2.821,0.131 -5.399,-2.029 -5.909,-2.77 -0.136,-0.197 -0.079,-0.461 0.127,-0.59 0.084,-0.053 0.177,-0.075 0.269,-0.07 0.137,0.007 0.269,0.074 0.349,0.191 C -5.952,-1.459 -2.882,1.12 0,0"
               style="fill:#fafafa;fill-opacity:1;fill-rule:nonzero;stroke:none"
               id="path4743" />
          </g>
          <g
             id="g4745"
             transform="translate(365.5264,80.8726)">
            <path
               d="M 0,0 C 0.137,0.007 0.269,0.073 0.35,0.191 0.773,0.806 3.496,3.105 6.206,2.477 6.098,2.877 5.79,3.205 5.272,3.438 2.546,3.442 0.101,1.38 -0.396,0.66 -0.531,0.463 -0.475,0.198 -0.269,0.069 -0.186,0.017 -0.092,-0.005 0,0"
               style="fill:#fafafa;fill-opacity:1;fill-rule:nonzero;stroke:none"
               id="path4747" />
          </g>
          <g
             id="g4749"
             transform="translate(302.7109,174.1538)">
            <path
               d="m 0,0 c -1.031,-5.791 -1.351,-9.067 0.687,-14.911 2.037,-5.845 8.798,-10.57 16.971,-15.147 6.763,-3.787 16.733,-9.25 18.749,-10.101 2.018,-0.851 2.247,-2.06 2.031,-5.885 -0.217,-3.825 1.211,-10.048 5.591,-17.794 4.626,-8.182 7.664,-14.758 7.664,-14.758 0,0 4.232,2.575 9.12,3.341 0,0 -8.477,37.907 -10.263,42.867 -1.785,4.959 -20.84,20.768 -20.84,20.768 0,0 1.865,7.94 3.25,13.719 z"
               style="fill:#37474f;fill-opacity:1;fill-rule:nonzero;stroke:none"
               id="path4751" />
          </g>
          <g
             id="g4753"
             transform="translate(381.7393,111.104)">
            <path
               d="m 0,0 c 0,0 2.479,-7.662 4.466,-11.248 1.897,-3.426 4.163,-7.003 7.038,-10.208 0.626,-0.698 2.046,-1.991 2.559,-2.556 0.455,-0.502 0.538,-1.091 -0.087,-1.71 -1.232,-1.22 -6.538,-1.599 -9.553,0.578 -3.016,2.178 -6.012,6.371 -7.819,8.135 -0.904,0.883 -1.753,1.726 -2.376,2.349 -0.599,0.597 -0.842,1.46 -0.639,2.281 0.057,0.233 0.121,0.506 0.191,0.826 0.378,1.722 -2.01,8.721 -2.01,8.721 z"
               style="fill:#ffa8a7;fill-opacity:1;fill-rule:nonzero;stroke:none"
               id="path4755" />
          </g>
          <g
             id="g4757"
             transform="translate(322.2217,185.6221)">
            <path
               d="m 0,0 c -1.031,-5.791 -1.351,-9.067 0.687,-14.912 2.036,-5.844 6.78,-15.135 14.953,-19.711 6.763,-3.787 17.003,-7.646 19.003,-8.536 1.549,-0.691 2.069,-2.37 2.727,-6.564 0.594,-3.785 2.429,-7.919 6.81,-15.665 4.626,-8.181 7.513,-13.208 7.513,-13.208 2.216,1.709 6.413,2.981 8.495,3.111 0,0 -9.708,36.219 -11.494,41.179 -1.785,4.959 -14.714,12.256 -20.262,15.455 -5.55,3.199 -8.651,5.19 -14.983,9.481 z"
               style="fill:#37474f;fill-opacity:1;fill-rule:nonzero;stroke:none"
               id="path4759" />
          </g>
          <g
             id="g4761"
             transform="translate(375.6963,94.6392)">
            <path
               d="m 0,0 c 0,0 -0.007,-0.992 0.294,-1.651 0.3,-0.659 1.833,-1.636 2.809,-2.094 0.975,-0.457 2.129,-1.245 3.083,-3.192 1.017,-2.079 3.015,-4.078 5.237,-5.045 2.222,-0.968 5.496,-1.572 9.411,-0.789 3.915,0.783 4.188,3.106 4.188,3.106 0,0 0.165,2.183 -0.82,2.508 C 23.218,-6.833 0,0 0,0"
               style="fill:#263238;fill-opacity:1;fill-rule:nonzero;stroke:none"
               id="path4763" />
          </g>
          <g
             id="g4765"
             transform="translate(374.6816,104.2295)">
            <path
               d="M 0,0 C 0.46,-2.394 0.357,-4.417 0.266,-5.647 0.182,-6.79 0.157,-8.588 1.015,-9.59 c 1.188,-1.582 3.683,-2.056 5.304,-4.215 1.622,-2.16 4.027,-6.075 9.193,-6.997 5.166,-0.921 9.038,0.79 9.961,2.273 0.923,1.483 0.027,2.846 -3.306,4.562 -3.538,1.822 -8.256,7.365 -8.256,7.365 -1.254,1.653 -2.525,3.28 -3.328,5.536 L 9.537,2.703 C 9.261,3.48 3.614,2.033 3.025,0.922 L 3.72,-2.522 2.171,0.709 Z"
               style="fill:#455a64;fill-opacity:1;fill-rule:nonzero;stroke:none"
               id="path4767" />
          </g>
          <g
             id="g4769"
             transform="translate(386.8359,84.5903)">
            <path
               d="M 0,0 C 0,0 -0.14,3.602 3.702,5.661 7.543,7.72 9.925,6.488 11.129,5.656 12.563,4.666 14.626,2.581 13.429,1.014 12.135,-0.678 10.027,-1.511 6.069,-1.635 2.111,-1.759 0,0 0,0"
               style="fill:#fafafa;fill-opacity:1;fill-rule:nonzero;stroke:none"
               id="path4771" />
          </g>
          <g
             id="g4773"
             transform="translate(381.2871,96.5156)">
            <path
               d="M 0,0 C 0.136,0.007 0.268,0.074 0.349,0.191 0.777,0.813 3.556,3.164 6.297,2.458 6.431,2.775 6.195,3.096 5.628,3.421 2.759,3.622 0.12,1.411 -0.396,0.66 -0.532,0.463 -0.475,0.199 -0.27,0.07 -0.187,0.018 -0.093,-0.004 0,0"
               style="fill:#fafafa;fill-opacity:1;fill-rule:nonzero;stroke:none"
               id="path4775" />
          </g>
          <g
             id="g4777"
             transform="translate(389.1875,96.9531)">
            <path
               d="m 0,0 c -0.053,0.41 -0.501,0.845 -0.791,0.934 -2.726,0.003 -5.172,-2.059 -5.668,-2.78 -0.136,-0.196 -0.079,-0.46 0.127,-0.59 0.083,-0.052 0.177,-0.074 0.269,-0.069 0.136,0.006 0.268,0.073 0.349,0.191 C -5.298,-1.71 -2.66,0.517 0,0"
               style="fill:#fafafa;fill-opacity:1;fill-rule:nonzero;stroke:none"
               id="path4779" />
          </g>
          <g
             id="g4781"
             transform="translate(386.3516,100.8369)">
            <path
               d="m 0,0 c 0.136,0.487 0,0.866 -0.556,1.063 -3.135,0.683 -6.183,-1.843 -6.743,-2.658 -0.136,-0.196 -0.078,-0.461 0.128,-0.589 0.082,-0.053 0.176,-0.075 0.269,-0.07 0.136,0.007 0.268,0.074 0.348,0.192 C -6.093,-1.394 -2.919,1.269 0,0"
               style="fill:#fafafa;fill-opacity:1;fill-rule:nonzero;stroke:none"
               id="path4783" />
          </g>
          <g
             id="g4785"
             transform="translate(393.5537,92.6191)">
            <path
               d="m 0,0 c -0.237,0.478 -0.657,0.852 -1.241,1.122 -2.822,0.131 -5.399,-2.028 -5.909,-2.769 -0.136,-0.197 -0.079,-0.462 0.127,-0.59 0.083,-0.053 0.176,-0.075 0.269,-0.07 0.137,0.007 0.268,0.074 0.349,0.191 C -5.952,-1.459 -2.882,1.12 0,0"
               style="fill:#fafafa;fill-opacity:1;fill-rule:nonzero;stroke:none"
               id="path4787" />
          </g>
          <g
             id="g4789"
             transform="translate(384.9619,92.3799)">
            <path
               d="M 0,0 C 0.137,0.007 0.269,0.074 0.349,0.191 0.773,0.806 3.496,3.105 6.206,2.477 6.098,2.877 5.79,3.205 5.271,3.438 2.546,3.442 0.1,1.38 -0.396,0.66 -0.532,0.463 -0.475,0.198 -0.27,0.07 -0.186,0.017 -0.092,-0.005 0,0"
               style="fill:#fafafa;fill-opacity:1;fill-rule:nonzero;stroke:none"
               id="path4791" />
          </g>
          <g
             id="g4793"
             transform="translate(336.5166,167.7075)">
            <path
               d="m 0,0 c 0,0 -2.162,-3.196 -4.096,-5.173 l 1.163,-0.977 c 0,0 2.301,2.894 2.933,6.15"
               style="fill:#37474f;fill-opacity:1;fill-rule:nonzero;stroke:none"
               id="path4795" />
          </g>
          <g
             id="g4797"
             transform="translate(314.6396,217.7681)">
            <path
               d="m 0,0 c -4.133,-0.258 -6.803,-1.016 -6.803,-1.016 0,0 4.061,-4.81 1.45,-13.35 -1.848,-6.047 -3.329,-6.311 -6.793,-7.465 2.388,-10.267 -0.193,-24.239 -0.193,-24.239 0,0 6.626,-5.344 20.755,-4.063 12.412,1.124 12.615,8.617 12.615,8.617 l -4.33,4.859 0.596,9.445 c 0,0 4.601,3.251 4.361,10.716 C 21.381,-7.898 14.421,0.478 14.421,0.478 12.913,0.693 11.694,0.741 10.043,0.657 10.043,0.657 4.133,0.259 0,0"
               style="fill:#241c1c;fill-opacity:1;fill-rule:nonzero;stroke:none"
               id="path4799" />
          </g>
          <g
             id="g4801"
             transform="translate(332.7197,171.04)">
            <path
               d="m 0,0 c -6.409,-1.112 -15.561,0.249 -18.73,3.521 -3.17,3.272 -4.914,11.01 -3.442,15.526 1.472,4.516 1.2,13.007 0.268,18.042 l -0.546,0.194 c -0.14,-1.489 -0.435,-3.129 -0.983,-4.921 -1.849,-6.047 -3.329,-6.311 -6.794,-7.465 2.175,-9.988 -0.192,-24.239 -0.192,-24.239 0,0 6.626,-5.344 20.755,-4.063 C -5.651,-3.042 -2.267,-1.946 0,0"
               style="fill:#280b0b;fill-opacity:1;fill-rule:nonzero;stroke:none"
               id="path4803" />
          </g>
          <g
             id="g4805"
             transform="translate(326.4941,254.6128)">
            <path
               d="m 0,0 c -9.436,1.514 -18.312,-4.909 -19.825,-14.345 -1.264,-7.874 4.096,-15.282 11.971,-16.545 l 5.654,-0.907 c 7.875,-1.263 13.534,6.48 15.492,14.212 C 15.582,-8.542 9.437,-1.514 0,0"
               style="fill:#2b1100;fill-opacity:1;fill-rule:nonzero;stroke:none"
               id="path4807" />
          </g>
          <g
             id="g4809"
             transform="translate(305.1701,208.4919)"
             style="fill:#2b1100">
            <path
               d="M 0,0 1.8649937,6.2477287 C 4.920745,16.484496 10.958831,-19.709937 11.503,11.503 l 0.559498,32.092191 c -6.3529999,0 -18.4145464,-24.112869 -16.4452331,-30.152936 z"
               style="fill:#2b1100;fill-opacity:1;fill-rule:nonzero;stroke:none"
               id="path4811"
               sodipodi:nodetypes="csscsc" />
          </g>
          <g
             id="g4813"
             transform="translate(319.3164,237.3989)">
            <path
               d="M 0,0 -3.141,3.068 C -2.878,3.769 -2.396,4.295 -1.57,4.552 6.7480426,9.3593837 0.53066667,2.4 1.581,1.324 1.279,0.634 0.728,0.22 0,0"
               style="fill:#2b1100;fill-opacity:1;fill-rule:nonzero;stroke:none"
               id="path4815"
               sodipodi:nodetypes="ccccc" />
          </g>
          <g
             id="g4817"
             transform="translate(335.6904,243.6265)">
            <path
               d="m 0,0 c 1.633,-1.356 3.241,-4.608 1.495,-14.088 -1.48,-8.035 -4.414,-9.608 -5.818,-9.972 -1.406,-0.363 -3.88,0.392 -6.276,1.197 l -0.583,-3.333 c 0,0 3.044,-7.56 1.91,-11.243 -0.665,-2.159 -5.257,1.099 -8.092,3.777 -2.835,2.679 -4.857,7.282 -4.857,7.282 l 1.86,11.172 c 0,0 -1.674,-1.174 -3.786,1.368 -1.744,2.097 -1.947,5.196 -0.11,6.546 1.837,1.351 4.688,0.445 5.441,-2.021 0,0 0.516,4.098 6.685,5.183 C -7.528,-3.323 -2.392,-3.731 0,0"
               style="fill:#ffa8a7;fill-opacity:1;fill-rule:nonzero;stroke:none"
               id="path4819" />
          </g>
          <g
             id="g4821"
             transform="translate(319.7539,238.0195)">
            <path
               d="m 0,0 c -0.744,-0.567 -1.288,-3.372 -1.565,-5.164 -0.134,-0.858 -0.912,-1.46 -1.777,-1.383 l 0.462,2.839 c 0,0 0.011,4.525 2.88,3.708"
               style="fill:#263238;fill-opacity:1;fill-rule:nonzero;stroke:none"
               id="path4823" />
          </g>
          <g
             id="g4825"
             transform="translate(338.8828,232.1929)">
            <path
               d="m 0,0 c -0.166,-0.583 -0.523,-1.842 -1.691,-2.444 -0.332,-0.173 -0.736,-0.291 -1.216,-0.323 -1.278,-0.088 -1.961,0.401 -2.328,0.983 -0.002,0.004 -0.005,0.008 -0.006,0.011 -0.015,0.023 -0.028,0.044 -0.039,0.066 -0.016,0.025 -0.031,0.052 -0.043,0.076 -0.007,0.012 -0.015,0.026 -0.022,0.04 -0.018,0.037 -0.037,0.076 -0.052,0.113 -0.02,0.045 -0.039,0.088 -0.055,0.134 -0.01,0.021 -0.017,0.043 -0.025,0.065 -0.004,0.012 -0.007,0.024 -0.012,0.036 -0.007,0.019 -0.012,0.037 -0.018,0.056 -0.004,0.014 -0.01,0.029 -0.013,0.041 -0.058,0.197 -0.093,0.383 -0.115,0.544 -0.105,0.813 -0.125,1.766 0.212,2.235 0.336,0.47 1.559,1.029 2.713,1.229 0.266,0.046 0.514,0.076 0.743,0.093 0.03,0.002 0.06,0.003 0.088,0.005 0.032,0.002 0.064,0.004 0.095,0.005 0.088,0.004 0.174,0.005 0.256,0.006 0.031,0 0.061,0 0.092,-10e-4 0.041,-0.001 0.082,-0.002 0.121,-0.004 0.069,-0.002 0.135,-0.007 0.2,-0.012 0.131,-0.011 0.253,-0.026 0.366,-0.047 0.028,-0.006 0.058,-0.011 0.086,-0.017 0.006,-0.001 0.015,-0.002 0.022,-0.005 0.019,-0.004 0.038,-0.007 0.058,-0.013 0.029,-0.005 0.06,-0.014 0.087,-0.021 0.036,-0.009 0.072,-0.02 0.104,-0.03 0.062,-0.018 0.119,-0.038 0.17,-0.06 0.011,-0.004 0.021,-0.008 0.031,-0.012 0.17,-0.07 0.295,-0.15 0.379,-0.23 C 0.511,2.211 0.211,0.747 0,0 m -9.414,-0.797 c -0.121,-0.411 -0.361,-1.007 -0.857,-1.512 V -2.31 c -0.5,-0.507 -1.259,-0.92 -2.418,-0.962 -1.172,-0.043 -1.821,0.409 -2.19,0.958 -0.023,0.034 -0.045,0.068 -0.064,0.102 -0.022,0.034 -0.041,0.067 -0.059,0.101 -0.018,0.031 -0.033,0.063 -0.049,0.096 -0.013,0.028 -0.027,0.057 -0.039,0.086 -0.012,0.023 -0.021,0.046 -0.029,0.069 -0.01,0.021 -0.019,0.042 -0.026,0.062 -0.013,0.034 -0.026,0.069 -0.039,0.103 v 0.001 c -0.036,0.105 -0.066,0.206 -0.089,0.304 -0.002,0.002 -0.002,0.004 -0.003,0.007 -0.016,0.063 -0.03,0.124 -0.042,0.183 -0.023,0.106 -0.04,0.206 -0.053,0.295 -0.003,0.019 -0.006,0.038 -0.009,0.056 -0.003,0.018 -0.006,0.036 -0.009,0.054 -0.114,0.731 -0.207,2.173 0.188,2.519 0.382,0.334 1.403,0.737 3.002,0.664 0.054,0 0.112,-0.003 0.171,-0.008 0.244,-0.016 0.488,-0.045 0.726,-0.088 0.095,-0.016 0.189,-0.035 0.281,-0.055 0.247,-0.053 0.485,-0.119 0.699,-0.194 0.074,-0.026 0.145,-0.053 0.213,-0.08 0.081,-0.031 0.157,-0.066 0.229,-0.1 0.016,-0.008 0.03,-0.014 0.046,-0.023 0.029,-0.013 0.057,-0.028 0.083,-0.044 0.214,-0.113 0.373,-0.238 0.454,-0.362 0.29,-0.437 0.124,-1.4 -0.117,-2.231 M 1.248,3.685 C 1.092,3.698 0.928,3.709 0.759,3.719 -0.82,3.807 -2.898,3.749 -4.18,3.306 -5.786,2.749 -6.379,2.189 -7.25,2.14 c -0.931,-0.044 -1.48,0.458 -3.125,0.847 -1.311,0.307 -3.539,0.143 -5.255,-0.115 -0.184,-0.028 -0.362,-0.058 -0.533,-0.087 -0.294,-0.052 -0.638,-0.452 -0.649,-0.899 -0.011,-0.448 0.304,-0.788 0.433,-0.985 0.058,-0.087 0.109,-0.214 0.144,-0.398 0.13,-0.692 0.146,-2.029 0.442,-2.757 0.119,-0.292 0.295,-0.65 0.603,-0.968 0.099,-0.103 0.204,-0.194 0.322,-0.278 0.061,-0.043 0.123,-0.083 0.189,-0.123 0.166,-0.098 0.355,-0.181 0.571,-0.249 0.032,-0.009 0.064,-0.019 0.097,-0.026 0.049,-0.013 0.102,-0.027 0.154,-0.039 0.052,-0.011 0.106,-0.021 0.162,-0.031 0.158,-0.028 0.331,-0.048 0.515,-0.055 0.072,-0.005 0.147,-0.006 0.223,-0.007 0.089,0.001 0.183,0.002 0.279,0.007 2.162,0.103 3.139,1.174 3.752,2.259 0.614,1.084 0.583,2.573 1.58,2.62 0.034,0.001 0.065,0.002 0.095,-0.001 0.03,-0.001 0.06,-0.004 0.087,-0.009 0.724,-0.134 0.535,-1.508 0.929,-2.471 0.151,-0.37 0.346,-0.735 0.629,-1.042 0.049,-0.055 0.101,-0.107 0.156,-0.158 0.027,-0.027 0.055,-0.05 0.085,-0.073 0.029,-0.025 0.057,-0.049 0.089,-0.071 0.026,-0.021 0.052,-0.041 0.081,-0.06 0.048,-0.032 0.068,-0.046 0.089,-0.059 0.022,-0.015 0.045,-0.029 0.07,-0.042 0.015,-0.011 0.032,-0.02 0.049,-0.03 0.238,-0.132 0.513,-0.236 0.837,-0.299 0.025,-0.005 0.051,-0.01 0.078,-0.014 0.305,-0.054 0.652,-0.074 1.046,-0.051 2.025,0.113 2.808,1.33 3.193,2.094 0.384,0.764 0.605,2.11 0.819,2.823 0.047,0.158 0.126,0.282 0.21,0.376 0.16,0.179 0.474,0.605 0.532,1.053 0.056,0.448 -0.21,0.841 -0.48,0.863"
               style="fill:#37474f;fill-opacity:1;fill-rule:nonzero;stroke:none"
               id="path4827" />
          </g>
          <g
             id="g4829"
             transform="translate(322.4951,234.8779)">
            <path
               d="m 0,0 -8.026,1.906 c 0.918,-0.3 1.618,-0.841 2.204,-1.948 l 5.559,-1.337 z"
               style="fill:#37474f;fill-opacity:1;fill-rule:nonzero;stroke:none"
               id="path4831" />
          </g>
          <g
             id="g4833"
             transform="translate(327.8301,232.4834)">
            <path
               d="m 0,0 c -0.063,-0.585 -0.572,-1.009 -1.136,-0.946 -0.563,0.063 -0.968,0.589 -0.905,1.175 0.064,0.586 0.573,1.009 1.137,0.946 C -0.341,1.112 0.064,0.586 0,0"
               style="fill:#263238;fill-opacity:1;fill-rule:nonzero;stroke:none"
               id="path4835" />
          </g>
          <g
             id="g4837"
             transform="translate(327.2422,226.0156)">
            <path
               d="M 0,0 2.728,-1.378 C 2.356,-2.162 1.445,-2.489 0.693,-2.109 -0.061,-1.729 -0.37,-0.785 0,0"
               style="fill:#f28f8f;fill-opacity:1;fill-rule:nonzero;stroke:none"
               id="path4839" />
          </g>
          <g
             id="g4841"
             transform="translate(337.3018,236.5732)">
            <path
               d="M 0,0 -2.589,0.722 C -2.437,1.51 -1.595,1.826 -0.89,1.625 -0.185,1.425 0.152,0.788 0,0"
               style="fill:#263238;fill-opacity:1;fill-rule:nonzero;stroke:none"
               id="path4843" />
          </g>
          <g
             id="g4845"
             transform="translate(327.4297,236.9424)">
            <path
               d="m 0,0 -2.571,-0.782 c -0.295,0.746 0.245,1.465 0.948,1.675 C -0.922,1.102 -0.295,0.746 0,0"
               style="fill:#263238;fill-opacity:1;fill-rule:nonzero;stroke:none"
               id="path4847" />
          </g>
          <g
             id="g4849"
             transform="translate(336.0137,232.4834)">
            <path
               d="m 0,0 c -0.064,-0.585 -0.573,-1.009 -1.137,-0.946 -0.563,0.063 -0.968,0.589 -0.904,1.175 0.063,0.586 0.572,1.009 1.136,0.946 C -0.342,1.112 0.063,0.586 0,0"
               style="fill:#263238;fill-opacity:1;fill-rule:nonzero;stroke:none"
               id="path4851" />
          </g>
          <g
             id="g4853"
             transform="translate(331.4863,233.0449)">
            <path
               d="M 0,0 -0.289,-6.313 3,-5.425 0.21,0 C 0.119,0.006 0.047,0.007 0,0"
               style="fill:#f28f8f;fill-opacity:1;fill-rule:nonzero;stroke:none"
               id="path4855" />
          </g>
          <g
             id="g4857"
             transform="translate(325.0918,220.7632)">
            <path
               d="m 0,0 c -2.539,0.756 -7.629,3.145 -8.122,5.388 0,0 0.064,-1.37 1.439,-2.992 1.375,-1.622 6.424,-4.011 6.424,-4.011 z"
               style="fill:#f28f8f;fill-opacity:1;fill-rule:nonzero;stroke:none"
               id="path4859" />
          </g>
          <g
             id="g4861"
             transform="translate(313.9658,153.3926)">
            <path
               d="m 0,0 v -0.724 c 0,-0.731 0.391,-1.408 1.021,-1.773 l 19.508,-11.226 c 0.316,-0.183 0.67,-0.273 1.025,-0.273 0.35,0 0.706,0.09 1.02,0.273 l 35.787,20.66 c 0.634,0.366 1.025,1.042 1.025,1.773 V 9.208 L 21.554,-12.634 Z"
               style="fill:#ebebeb;fill-opacity:1;fill-rule:nonzero;stroke:none"
               id="path4863" />
          </g>
          <g
             id="g4865"
             transform="translate(373.3516,162.6006)">
            <path
               d="m 0,0 -21.219,12.25 c -0.378,0.218 -0.843,0.218 -1.219,0 L -59.25,-9.006 c -0.181,-0.105 -0.181,-0.366 0,-0.47 l 21.418,-12.368 z"
               style="fill:#fafafa;fill-opacity:1;fill-rule:nonzero;stroke:none"
               id="path4867" />
          </g>
          <g
             id="g4869"
             transform="translate(342.0029,171.9609)">
            <path
               d="m 0,0 c 1.744,-0.667 1.679,-1.184 3.101,-1.991 2.636,-1.497 4.348,-1.2 4.348,-1.2 0,0 1.291,-1.233 2.492,-2.058 1.866,-1.28 3.736,-2.263 6.035,-1.537 2.517,0.795 0.742,3.287 0,4.513 C 15.233,-1.047 11.18,2.546 10.384,3.28 9.588,4.014 6.151,4.519 3.133,5.465 Z"
               style="fill:#ffa8a7;fill-opacity:1;fill-rule:nonzero;stroke:none"
               id="path4871" />
          </g>
          <g
             id="g4873"
             transform="translate(335.3242,142.5586)">
            <path
               d="M 0,0 -11.445,6.601 22.02,25.922 33.524,19.355 Z"
               style="fill:#e0e0e0;fill-opacity:1;fill-rule:nonzero;stroke:none"
               id="path4875" />
          </g>
          <g
             id="g4877"
             transform="translate(329.6992,160.9209)">
            <path
               d="M 0,0 0.211,-0.122 5.82,-3.36 15.796,2.4 16.004,2.518 10.183,5.878 Z"
               style="fill:#e0e0e0;fill-opacity:1;fill-rule:nonzero;stroke:none"
               id="path4879" />
          </g>
          <g
             id="g4881"
             transform="translate(329.9102,160.7993)">
            <path
               d="M 0,0 5.609,-3.238 15.585,2.521 9.972,5.759 Z"
               style="fill:#e6e6e6;fill-opacity:1;fill-rule:nonzero;stroke:none"
               id="path4883" />
          </g>
          <g
             id="g4885"
             transform="translate(335.5195,140.7583)">
            <path
               d="m 0,0 v -1.361 c 0.351,0 0.706,0.089 1.021,0.272 l 35.787,20.661 c 0.633,0.365 1.024,1.042 1.024,1.773 v 0.497 z"
               style="fill:#ebebeb;fill-opacity:1;fill-rule:nonzero;stroke:none"
               id="path4887" />
          </g>
          <g
             id="g4889">
            <g
               id="g4891" />
            <g
               id="g4903">
              <g
                 clip-path="url(#clipPath4895)"
                 opacity="0.5"
                 id="g4901">
                <g
                   transform="translate(335.5195,140.7583)"
                   id="g4899">
                  <path
                     d="m 0,0 v -1.361 c 0.351,0 0.706,0.089 1.021,0.272 l 35.787,20.661 c 0.633,0.365 1.024,1.042 1.024,1.773 v 0.497 z"
                     style="fill:#e0e0e0;fill-opacity:1;fill-rule:nonzero;stroke:none"
                     id="path4897" />
                </g>
              </g>
            </g>
          </g>
          <g
             id="g4905"
             transform="translate(336.0957,140.4561)">
            <path
               d="m 0,0 c 0.678,-0.261 1.447,-0.211 2.089,0.161 l 35.629,20.571 c 0.627,0.362 1.056,0.981 1.178,1.694 l 3.901,23.262 c 0.021,0.132 0.032,0.265 0.032,0.397 0,0.648 -0.258,1.268 -0.716,1.723 L 5.087,26.427 C 4.625,26.159 4.306,25.7 4.217,25.174 Z"
               style="fill:#ebebeb;fill-opacity:1;fill-rule:nonzero;stroke:none"
               id="path4907" />
          </g>
          <g
             id="g4909"
             transform="translate(335.5195,140.7568)">
            <path
               d="M 0,0 0.243,-0.14 C 0.351,-0.2 0.462,-0.254 0.576,-0.301 l 4.217,25.174 c 0.089,0.526 0.408,0.985 0.87,1.253 l 37.026,21.381 c -0.143,0.143 -0.311,0.269 -0.494,0.376 L 5.094,26.463 C 4.632,26.195 4.312,25.736 4.223,25.209 Z"
               style="fill:#fafafa;fill-opacity:1;fill-rule:nonzero;stroke:none"
               id="path4911" />
          </g>
          <g
             id="g4913"
             transform="translate(356.1631,161.9292)">
            <path
               d="M 0,0 C 0.261,1.558 1.869,3.626 3.591,4.62 5.313,5.614 6.498,5.158 6.236,3.601 5.976,2.043 4.367,-0.025 2.646,-1.02 0.923,-2.014 -0.262,-1.557 0,0"
               style="fill:#00ff00;fill-opacity:1;fill-rule:nonzero;stroke:none"
               id="path4915" />
          </g>
          <g
             id="g4917"
             transform="translate(315.8437,161.9463)">
            <path
               d="m 0,0 c -4.225,2.145 -19.373,8.007 -23.933,10.494 -3.176,1.732 -4.857,2.852 -4.395,5.793 0.43,2.735 7.658,25.886 10.153,31.098 2.189,4.573 5.544,6.091 10.555,7.238 3.467,-4.033 0.975,-16.011 -2.431,-20.386 -2.491,-5.388 -6.927,-15.255 -6.927,-15.255 0,0 7.854,-5.327 14.11,-9.164 3.399,-2.085 6.747,-3.695 9.685,-4.773 1.972,-0.723 5.64,-2.553 6.287,-3.421 0.647,-0.869 3.366,-5.882 3.868,-7.224 0.502,-1.342 1.785,-4.119 -0.836,-4.434 -2.394,-0.288 -4.049,1.024 -5.646,2.628 -1.028,1.032 -2.068,2.484 -2.068,2.484 0,0 -2.784,0.089 -5.099,2.049 C 2.075,-1.816 0,0 0,0"
               style="fill:#ffa8a7;fill-opacity:1;fill-rule:nonzero;stroke:none"
               id="path4919" />
          </g>
          <g
             id="g4921"
             transform="translate(308.6943,216.9604)">
            <path
               d="m 0,0 c 0,0 -5.508,-0.517 -8.663,-3.73 -3.155,-3.213 -3.289,-5.125 -4.847,-9.222 -1.556,-4.096 -4.738,-14.099 -4.738,-14.099 0,0 4.075,-6.051 11.854,-4.509 l 4.184,10.077 c 0,0 3.104,4.024 4.067,10.007 C 2.82,-5.493 2.405,-2.043 0,0"
               style="fill:#241c1c;fill-opacity:1;fill-rule:nonzero;stroke:none"
               id="path4923" />
          </g>
        </g>
      </g>
    </g>
  </g>
</svg>
